STARTFONT 2.1
COMMENT
COMMENT Converted from OpenType font "Q:\font stuff\winfont\Saved By Zero.ttf" by "otf2bdf 3.0".
COMMENT
FONT -FreeType-Saved By Zero-Medium-R-Normal--24-240-72-72-P-50-ISO10646-1
SIZE 24 72 72
FONTBOUNDINGBOX 26 24 -2 -5
STARTPROPERTIES 19
FOUNDRY "FreeType"
FAMILY_NAME "Saved By Zero"
WEIGHT_NAME "Medium"
SLANT "R"
SETWIDTH_NAME "Normal"
ADD_STYLE_NAME ""
PIXEL_SIZE 24
POINT_SIZE 240
RESOLUTION_X 72
RESOLUTION_Y 72
SPACING "P"
AVERAGE_WIDTH 50
CHARSET_REGISTRY "ISO10646"
CHARSET_ENCODING "1"
FONT_ASCENT 19
FONT_DESCENT 5
COPYRIGHT "© 1998 Ray Larabie-www.larabiefonts.com"
_OTF_FONTFILE "Q:\font stuff\winfont\Saved By Zero.ttf"
_OTF_PSNAME "SavedByZero"
ENDPROPERTIES
CHARS 530
STARTCHAR 0020
ENCODING 32
SWIDTH 333 0
DWIDTH 8 0
BBX 0 0 0 0
BITMAP
ENDCHAR
STARTCHAR 0021
ENCODING 33
SWIDTH 166 0
DWIDTH 4 0
BBX 3 14 1 0
BITMAP
E0
E0
E0
E0
E0
E0
E0
E0
E0
E0
00
E0
E0
E0
ENDCHAR
STARTCHAR 0022
ENCODING 34
SWIDTH 333 0
DWIDTH 8 0
BBX 6 4 1 10
BITMAP
FC
FC
FC
FC
ENDCHAR
STARTCHAR 0023
ENCODING 35
SWIDTH 500 0
DWIDTH 12 0
BBX 10 10 1 2
BITMAP
3B80
FFC0
FFC0
FFC0
3B80
3B80
FFC0
FFC0
FFC0
3B80
ENDCHAR
STARTCHAR 0024
ENCODING 36
SWIDTH 583 0
DWIDTH 14 0
BBX 13 16 1 -1
BITMAP
0700
3F00
7F00
FF00
E700
E700
E700
FFE0
7FF0
3FF8
0738
0738
07F8
07F0
07E0
0700
ENDCHAR
STARTCHAR 0025
ENCODING 37
SWIDTH 958 0
DWIDTH 23 0
BBX 23 14 0 0
BITMAP
1F0700
7F8700
7FC700
F1C700
E1C700
7FC700
7FBFF8
3FFFFC
01FFFE
01E78E
01C70E
01C3FE
01C3FC
01C1F8
ENDCHAR
STARTCHAR 0026
ENCODING 38
SWIDTH 666 0
DWIDTH 16 0
BBX 15 14 1 0
BITMAP
3FC0
7FC0
FFC0
E1C0
E1C0
FFFE
FFFE
FFFE
E1C0
E1C0
E1C0
FFFE
7FFE
3FFE
ENDCHAR
STARTCHAR 0027
ENCODING 39
SWIDTH 208 0
DWIDTH 5 0
BBX 3 4 1 10
BITMAP
E0
E0
E0
E0
ENDCHAR
STARTCHAR 0028
ENCODING 40
SWIDTH 291 0
DWIDTH 7 0
BBX 6 18 1 -2
BITMAP
3C
7C
FC
E0
E0
E0
E0
E0
E0
E0
E0
E0
E0
E0
E0
FC
7C
3C
ENDCHAR
STARTCHAR 0029
ENCODING 41
SWIDTH 291 0
DWIDTH 7 0
BBX 6 18 1 -2
BITMAP
F0
F8
FC
1C
1C
1C
1C
1C
1C
1C
1C
1C
1C
1C
1C
FC
F8
F0
ENDCHAR
STARTCHAR 002A
ENCODING 42
SWIDTH 666 0
DWIDTH 16 0
BBX 14 13 1 0
BITMAP
1860
15A0
1220
1320
3FF0
C8CC
8844
74D8
1F20
1220
2320
14A0
0840
ENDCHAR
STARTCHAR 002B
ENCODING 43
SWIDTH 375 0
DWIDTH 9 0
BBX 7 6 1 4
BITMAP
38
FE
FE
FE
38
38
ENDCHAR
STARTCHAR 002C
ENCODING 44
SWIDTH 166 0
DWIDTH 4 0
BBX 3 5 1 -2
BITMAP
E0
E0
E0
E0
E0
ENDCHAR
STARTCHAR 002D
ENCODING 45
SWIDTH 333 0
DWIDTH 8 0
BBX 6 2 1 6
BITMAP
FC
FC
ENDCHAR
STARTCHAR 002E
ENCODING 46
SWIDTH 166 0
DWIDTH 4 0
BBX 3 3 1 0
BITMAP
E0
E0
E0
ENDCHAR
STARTCHAR 002F
ENCODING 47
SWIDTH 375 0
DWIDTH 9 0
BBX 8 14 0 0
BITMAP
07
07
07
07
07
07
3F
7F
7E
F0
E0
E0
E0
E0
ENDCHAR
STARTCHAR 0030
ENCODING 48
SWIDTH 625 0
DWIDTH 15 0
BBX 13 14 1 0
BITMAP
3FE0
7FF0
FFF8
E038
E038
E038
E038
E038
E038
E038
E038
FFF8
7FF0
3FE0
ENDCHAR
STARTCHAR 0031
ENCODING 49
SWIDTH 291 0
DWIDTH 7 0
BBX 5 14 1 0
BITMAP
E0
F0
F8
38
38
38
38
38
38
38
38
38
38
38
ENDCHAR
STARTCHAR 0032
ENCODING 50
SWIDTH 583 0
DWIDTH 14 0
BBX 13 14 0 0
BITMAP
7FE0
7FF0
7FF8
0038
0038
0038
3FF8
7FF8
7FE0
E000
E000
7FF8
7FF8
3FF8
ENDCHAR
STARTCHAR 0033
ENCODING 51
SWIDTH 583 0
DWIDTH 14 0
BBX 12 14 1 0
BITMAP
FFC0
FFE0
FFF0
0070
0070
0070
FFF0
FFF0
FFF0
0070
0070
FFF0
FFE0
FFC0
ENDCHAR
STARTCHAR 0034
ENCODING 52
SWIDTH 583 0
DWIDTH 14 0
BBX 12 14 1 0
BITMAP
E1C0
E1C0
E1C0
E1C0
E1C0
E1C0
FFF0
7FF0
3FF0
01C0
01C0
01C0
01C0
01C0
ENDCHAR
STARTCHAR 0035
ENCODING 53
SWIDTH 583 0
DWIDTH 14 0
BBX 13 14 1 0
BITMAP
3FF0
7FF0
FFF0
E000
E000
E000
FFE0
7FF0
3FF8
0038
0038
FFF8
FFF0
FFE0
ENDCHAR
STARTCHAR 0036
ENCODING 54
SWIDTH 583 0
DWIDTH 14 0
BBX 13 14 1 0
BITMAP
3FF8
7FF8
FFF8
E000
E000
EFE0
EFF0
EFF8
E038
E038
E038
FFF8
7FF0
3FE0
ENDCHAR
STARTCHAR 0037
ENCODING 55
SWIDTH 583 0
DWIDTH 14 0
BBX 11 14 2 0
BITMAP
FF80
FFC0
FFE0
00E0
00E0
00E0
00E0
00E0
00E0
00E0
00E0
00E0
00E0
00E0
ENDCHAR
STARTCHAR 0038
ENCODING 56
SWIDTH 583 0
DWIDTH 14 0
BBX 13 14 1 0
BITMAP
3FC0
FFF0
FFF0
E078
E038
E070
FFF0
FFF0
FFF0
E078
E078
FFF0
FFF0
3FE0
ENDCHAR
STARTCHAR 0039
ENCODING 57
SWIDTH 625 0
DWIDTH 15 0
BBX 13 14 1 0
BITMAP
3FE0
7FF0
FFF8
E038
E038
E038
FFB8
7FB8
3FB8
0038
0038
FFF8
FFF0
FFE0
ENDCHAR
STARTCHAR 003A
ENCODING 58
SWIDTH 166 0
DWIDTH 4 0
BBX 3 8 1 0
BITMAP
E0
E0
E0
00
00
E0
E0
E0
ENDCHAR
STARTCHAR 003B
ENCODING 59
SWIDTH 166 0
DWIDTH 4 0
BBX 3 10 1 -2
BITMAP
E0
E0
E0
00
00
E0
E0
E0
E0
E0
ENDCHAR
STARTCHAR 003C
ENCODING 60
SWIDTH 333 0
DWIDTH 8 0
BBX 5 9 2 1
BITMAP
30
78
F8
E0
E0
E0
F0
78
30
ENDCHAR
STARTCHAR 003D
ENCODING 61
SWIDTH 375 0
DWIDTH 9 0
BBX 7 8 1 3
BITMAP
FE
FE
FE
00
00
FE
FE
FE
ENDCHAR
STARTCHAR 003E
ENCODING 62
SWIDTH 291 0
DWIDTH 7 0
BBX 5 10 1 1
BITMAP
40
E0
F0
78
38
78
F0
F0
E0
40
ENDCHAR
STARTCHAR 003F
ENCODING 63
SWIDTH 750 0
DWIDTH 18 0
BBX 17 14 1 0
BITMAP
FFFE00
FFFF00
FFFF80
000380
000380
000380
3FFF80
7FFF00
7FFE00
E00000
E00000
600000
E00000
600000
ENDCHAR
STARTCHAR 0040
ENCODING 64
SWIDTH 750 0
DWIDTH 18 0
BBX 16 14 1 0
BITMAP
3FFC
7FFE
FFFF
E3E7
E7F7
EFFF
EE3F
EE3F
EFFF
E7FE
E3FC
FFFF
7FFF
3FFF
ENDCHAR
STARTCHAR 0041
ENCODING 65
SWIDTH 708 0
DWIDTH 17 0
BBX 17 14 0 0
BITMAP
07F800
0FFC00
1FFC00
1C1E00
1C0E00
3C0E00
3BFE00
3BFF00
3BFF00
780700
700700
700380
700380
F00380
ENDCHAR
STARTCHAR 0042
ENCODING 66
SWIDTH 791 0
DWIDTH 19 0
BBX 17 14 1 0
BITMAP
FFFE00
FFFF00
FFFF80
E00380
E00380
E00380
EFFF00
EFFF00
EFFF80
E00380
E00380
FFFF80
FFFF00
FFFE00
ENDCHAR
STARTCHAR 0043
ENCODING 67
SWIDTH 750 0
DWIDTH 18 0
BBX 16 14 1 0
BITMAP
3FFF
7FFF
FFFF
E000
E000
E000
E000
E000
E000
E000
E000
FFFF
7FFF
3FFF
ENDCHAR
STARTCHAR 0044
ENCODING 68
SWIDTH 791 0
DWIDTH 19 0
BBX 17 14 1 0
BITMAP
FFFE00
FFFF00
FFFF80
E00380
E00380
E00380
E00380
E00380
E00380
E00380
E00380
FFFF80
FFFF00
FFFE00
ENDCHAR
STARTCHAR 0045
ENCODING 69
SWIDTH 750 0
DWIDTH 18 0
BBX 16 14 1 0
BITMAP
3FFF
7FFF
FFFF
E000
E000
FFFF
FFFF
FFFF
E000
E000
E000
FFFF
7FFF
3FFF
ENDCHAR
STARTCHAR 0046
ENCODING 70
SWIDTH 750 0
DWIDTH 18 0
BBX 16 14 1 0
BITMAP
3FFF
7FFF
FFFF
E000
E000
FFFF
FFFF
FFFF
E000
E000
E000
E000
E000
E000
ENDCHAR
STARTCHAR 0047
ENCODING 71
SWIDTH 750 0
DWIDTH 18 0
BBX 16 14 1 0
BITMAP
3FFF
7FFF
FFFF
E000
E000
EFFC
EFFE
EFFF
E007
E007
E007
FFFF
7FFE
3FFC
ENDCHAR
STARTCHAR 0048
ENCODING 72
SWIDTH 750 0
DWIDTH 18 0
BBX 16 14 1 0
BITMAP
E007
E007
E007
E007
E007
FFFF
FFFF
FFFF
E007
E007
E007
E007
E007
E007
ENDCHAR
STARTCHAR 0049
ENCODING 73
SWIDTH 166 0
DWIDTH 4 0
BBX 3 14 1 0
BITMAP
E0
E0
E0
E0
E0
E0
E0
E0
E0
E0
E0
E0
E0
E0
ENDCHAR
STARTCHAR 004A
ENCODING 74
SWIDTH 666 0
DWIDTH 16 0
BBX 14 14 1 0
BITMAP
001C
001C
001C
001C
001C
001C
001C
001C
001C
001C
001C
FFFC
FFFC
FFF0
ENDCHAR
STARTCHAR 004B
ENCODING 75
SWIDTH 791 0
DWIDTH 19 0
BBX 17 14 1 0
BITMAP
E00380
E00380
E00380
E00380
E00700
E00F00
EFFE00
EFFE00
EFFF00
E00F00
E00780
E00380
E00380
E00380
ENDCHAR
STARTCHAR 004C
ENCODING 76
SWIDTH 666 0
DWIDTH 16 0
BBX 14 14 1 0
BITMAP
E000
E000
E000
E000
E000
E000
E000
E000
E000
E000
E000
FFFC
7FFC
3FFC
ENDCHAR
STARTCHAR 004D
ENCODING 77
SWIDTH 1000 0
DWIDTH 24 0
BBX 23 14 1 0
BITMAP
3F01F8
FF87FC
FF87FC
E3C71E
E1C70E
E1C70E
E1C70E
E1C70E
E1C70E
E1C70E
E1CF0E
E1FE0E
E1FE0E
E0780E
ENDCHAR
STARTCHAR 004E
ENCODING 78
SWIDTH 791 0
DWIDTH 19 0
BBX 17 14 1 0
BITMAP
3F0380
FF8380
FF8380
E3C380
E1C380
E1C380
E1C380
E1C380
E1C380
E1C380
E1C780
E1FF00
E1FF00
E07E00
ENDCHAR
STARTCHAR 004F
ENCODING 79
SWIDTH 791 0
DWIDTH 19 0
BBX 17 14 1 0
BITMAP
3FFE00
7FFF00
FFFF80
E00380
E00380
E00380
E00380
E00380
E00380
E00380
E00380
FFFF80
7FFF00
3FFE00
ENDCHAR
STARTCHAR 0050
ENCODING 80
SWIDTH 750 0
DWIDTH 18 0
BBX 17 14 1 0
BITMAP
FFFE00
FFFF00
FFFF80
E00380
E00380
E00380
FFFF80
FFFF00
FFFE00
E00000
E00000
E00000
E00000
E00000
ENDCHAR
STARTCHAR 0051
ENCODING 81
SWIDTH 791 0
DWIDTH 19 0
BBX 17 16 1 -2
BITMAP
3FFE00
7FFF00
FFFF80
E00380
E00380
E00380
E00380
E00380
E00380
E1C380
E1C380
FFFF80
7FFF00
3FFE00
01C000
01C000
ENDCHAR
STARTCHAR 0052
ENCODING 82
SWIDTH 791 0
DWIDTH 19 0
BBX 17 14 1 0
BITMAP
FFFE00
FFFF00
FFFF80
E00380
E00380
E00380
FFFF00
FFFF00
FFFF80
E00380
E00380
E00380
E00380
E00380
ENDCHAR
STARTCHAR 0053
ENCODING 83
SWIDTH 750 0
DWIDTH 18 0
BBX 17 14 1 0
BITMAP
3FFF80
7FFF80
FFFF80
E00000
E00000
E00000
FFFE00
7FFF00
3FFF80
000380
000380
FFFF80
FFFF00
FFFE00
ENDCHAR
STARTCHAR 0054
ENCODING 84
SWIDTH 750 0
DWIDTH 18 0
BBX 16 14 1 0
BITMAP
FFFF
FFFF
FFFF
01C0
01C0
01C0
01C0
01C0
01C0
01C0
01C0
01C0
01C0
01C0
ENDCHAR
STARTCHAR 0055
ENCODING 85
SWIDTH 791 0
DWIDTH 19 0
BBX 17 14 1 0
BITMAP
E00380
E00380
E00380
E00380
E00380
E00380
E00380
E00380
E00380
E00380
E00380
FFFF80
7FFF00
3FFE00
ENDCHAR
STARTCHAR 0056
ENCODING 86
SWIDTH 708 0
DWIDTH 17 0
BBX 17 14 0 0
BITMAP
F00380
700380
700780
700700
780700
380700
380F00
380E00
3C0E00
1C0E00
1C1E00
1FFC00
0FFC00
07F000
ENDCHAR
STARTCHAR 0057
ENCODING 87
SWIDTH 1000 0
DWIDTH 24 0
BBX 23 14 0 0
BITMAP
E03C0E
E0FF0E
E0FF0E
E1E70E
E1C70E
E1C70E
E1C70E
E1C70E
E1C70E
E1C70E
F1C78E
7FC3FE
7FC3FE
3F81F8
ENDCHAR
STARTCHAR 0058
ENCODING 88
SWIDTH 791 0
DWIDTH 19 0
BBX 17 14 1 0
BITMAP
E00380
E00380
E00380
E00380
E00380
E00380
7FFF00
7FFF00
FFFF80
E00380
E00380
E00380
E00380
E00380
ENDCHAR
STARTCHAR 0059
ENCODING 89
SWIDTH 750 0
DWIDTH 18 0
BBX 17 14 1 0
BITMAP
E00380
E00380
E00380
E00380
E00380
E00380
FFFF80
7FFF00
3FFE00
01C000
01C000
01C000
01C000
01C000
ENDCHAR
STARTCHAR 005A
ENCODING 90
SWIDTH 750 0
DWIDTH 18 0
BBX 17 14 1 0
BITMAP
FFFE00
FFFF00
FFFF80
000380
000380
000380
3FFF80
7FFF00
FFFE00
E00000
E00000
FFFF80
7FFF80
3FFF80
ENDCHAR
STARTCHAR 005B
ENCODING 91
SWIDTH 291 0
DWIDTH 7 0
BBX 6 18 1 -2
BITMAP
FC
FC
FC
E0
E0
E0
E0
E0
E0
E0
E0
E0
E0
E0
E0
FC
FC
FC
ENDCHAR
STARTCHAR 005C
ENCODING 92
SWIDTH 375 0
DWIDTH 9 0
BBX 8 14 0 0
BITMAP
E0
E0
E0
E0
E0
70
7E
3F
07
07
07
07
07
07
ENDCHAR
STARTCHAR 005D
ENCODING 93
SWIDTH 333 0
DWIDTH 8 0
BBX 6 18 1 -2
BITMAP
FC
FC
FC
1C
1C
1C
1C
1C
1C
1C
1C
1C
1C
1C
1C
FC
FC
FC
ENDCHAR
STARTCHAR 005E
ENCODING 94
SWIDTH 500 0
DWIDTH 12 0
BBX 10 5 1 8
BITMAP
1E00
3F00
7F80
F3C0
6180
ENDCHAR
STARTCHAR 005F
ENCODING 95
SWIDTH 541 0
DWIDTH 13 0
BBX 11 3 1 -3
BITMAP
FFE0
FFE0
FFE0
ENDCHAR
STARTCHAR 0060
ENCODING 96
SWIDTH 375 0
DWIDTH 9 0
BBX 4 2 3 13
BITMAP
E0
70
ENDCHAR
STARTCHAR 0061
ENCODING 97
SWIDTH 750 0
DWIDTH 18 0
BBX 16 14 1 0
BITMAP
FFFC
FFFE
FFFF
0007
0007
3FF7
7FF7
FFF7
E007
E007
E007
FFFF
7FFE
3FFC
ENDCHAR
STARTCHAR 0062
ENCODING 98
SWIDTH 750 0
DWIDTH 18 0
BBX 16 14 1 0
BITMAP
E000
E000
E000
E000
E000
EFFC
EFFE
EFFF
E007
E007
E007
FFFF
7FFE
3FFC
ENDCHAR
STARTCHAR 0063
ENCODING 99
SWIDTH 750 0
DWIDTH 18 0
BBX 16 14 1 0
BITMAP
3FFF
7FFF
FFFF
E000
E000
E000
E000
E000
E000
E000
E000
FFFF
7FFF
3FFF
ENDCHAR
STARTCHAR 0064
ENCODING 100
SWIDTH 750 0
DWIDTH 18 0
BBX 16 14 1 0
BITMAP
0007
0007
0007
0007
0007
3FF7
7FF7
FFF7
E007
E007
E007
FFFF
7FFE
3FFC
ENDCHAR
STARTCHAR 0065
ENCODING 101
SWIDTH 750 0
DWIDTH 18 0
BBX 16 14 1 0
BITMAP
3FFC
FFFE
FFFE
E00F
E007
E00F
EFFE
EFFE
EFFC
E000
E000
FFFF
7FFF
3FFF
ENDCHAR
STARTCHAR 0066
ENCODING 102
SWIDTH 750 0
DWIDTH 18 0
BBX 16 14 1 0
BITMAP
3FFF
7FFF
FFFF
E000
E000
FFFF
FFFF
FFFF
E000
E000
E000
E000
E000
E000
ENDCHAR
STARTCHAR 0067
ENCODING 103
SWIDTH 750 0
DWIDTH 18 0
BBX 16 14 1 0
BITMAP
3FFF
7FFF
FFFF
E000
E000
EFFC
EFFE
EFFF
E007
E007
E007
FFFF
7FFE
3FFC
ENDCHAR
STARTCHAR 0068
ENCODING 104
SWIDTH 750 0
DWIDTH 18 0
BBX 16 14 0 0
BITMAP
E007
E007
E007
E007
E007
FFFF
FFFF
FFFF
E007
E007
E007
E007
E007
E007
ENDCHAR
STARTCHAR 0069
ENCODING 105
SWIDTH 166 0
DWIDTH 4 0
BBX 3 14 1 0
BITMAP
E0
E0
E0
E0
E0
E0
E0
E0
E0
E0
E0
E0
E0
E0
ENDCHAR
STARTCHAR 006A
ENCODING 106
SWIDTH 666 0
DWIDTH 16 0
BBX 14 14 1 0
BITMAP
001C
001C
001C
001C
001C
001C
001C
001C
001C
001C
001C
FFFC
FFF8
FFF0
ENDCHAR
STARTCHAR 006B
ENCODING 107
SWIDTH 791 0
DWIDTH 19 0
BBX 17 14 1 0
BITMAP
E00380
E00380
E00380
E00380
E00700
E00F00
EFFE00
EFFE00
EFFF00
E00F00
E00780
E00380
E00380
E00380
ENDCHAR
STARTCHAR 006C
ENCODING 108
SWIDTH 666 0
DWIDTH 16 0
BBX 14 14 1 0
BITMAP
E000
E000
E000
E000
E000
E000
E000
E000
E000
E000
E000
FFFC
7FFC
3FFC
ENDCHAR
STARTCHAR 006D
ENCODING 109
SWIDTH 1000 0
DWIDTH 24 0
BBX 23 14 0 0
BITMAP
3F01F8
7F83FC
FFC7FE
E1C70E
E1C70E
E1C70E
E1C70E
E1C70E
E1C70E
E1C70E
E1C70E
E1FF0E
E0FE0E
E07C0E
ENDCHAR
STARTCHAR 006E
ENCODING 110
SWIDTH 791 0
DWIDTH 19 0
BBX 17 14 0 0
BITMAP
3F0380
7F8380
FFC380
E1C380
E1C380
E1C380
E1C380
E1C380
E1C380
E1C380
E1C380
E1FF80
E0FF00
E07E00
ENDCHAR
STARTCHAR 006F
ENCODING 111
SWIDTH 791 0
DWIDTH 19 0
BBX 17 14 1 0
BITMAP
3FFE00
7FFF00
FFFF80
E00380
E00380
E00380
E00380
E00380
E00380
E00380
E00380
FFFF80
7FFF00
3FFE00
ENDCHAR
STARTCHAR 0070
ENCODING 112
SWIDTH 750 0
DWIDTH 18 0
BBX 17 14 1 0
BITMAP
FFFE00
FFFF00
FFFF80
E00380
E00380
E00380
FFFF80
FFFF00
FFFE00
E00000
E00000
E00000
E00000
E00000
ENDCHAR
STARTCHAR 0071
ENCODING 113
SWIDTH 791 0
DWIDTH 19 0
BBX 17 16 1 -2
BITMAP
3FFE00
7FFF00
FFFF80
E00380
E00380
E00380
E00380
E00380
E00380
E1C380
E1C380
FFFF80
7FFF00
3FFE00
01C000
01C000
ENDCHAR
STARTCHAR 0072
ENCODING 114
SWIDTH 791 0
DWIDTH 19 0
BBX 17 14 1 0
BITMAP
FFFE00
FFFF00
FFFF80
E00380
E00380
E00380
FFFF00
FFFF00
FFFF80
E00380
E00380
E00380
E00380
E00380
ENDCHAR
STARTCHAR 0073
ENCODING 115
SWIDTH 750 0
DWIDTH 18 0
BBX 17 14 1 0
BITMAP
3FFF80
7FFF80
FFFF80
E00000
E00000
E00000
FFFE00
7FFF00
3FFF80
000380
000380
FFFF80
FFFF00
FFFE00
ENDCHAR
STARTCHAR 0074
ENCODING 116
SWIDTH 750 0
DWIDTH 18 0
BBX 16 14 1 0
BITMAP
FFFF
FFFF
FFFF
01C0
01C0
01C0
01C0
01C0
01C0
01C0
01C0
01C0
01C0
01C0
ENDCHAR
STARTCHAR 0075
ENCODING 117
SWIDTH 791 0
DWIDTH 19 0
BBX 17 14 1 0
BITMAP
E00380
E00380
E00380
E00380
E00380
E00380
E00380
E00380
E00380
E00380
E00380
FFFF80
7FFF00
3FFE00
ENDCHAR
STARTCHAR 0076
ENCODING 118
SWIDTH 750 0
DWIDTH 18 0
BBX 17 14 0 0
BITMAP
E00380
E00780
700700
700700
700700
780F00
380E00
380E00
380E00
3C1E00
1C1C00
1FFC00
0FF800
07F000
ENDCHAR
STARTCHAR 0077
ENCODING 119
SWIDTH 1000 0
DWIDTH 24 0
BBX 23 14 0 0
BITMAP
E07C0E
E0FE0E
E1FF0E
E1C70E
E1C70E
E1C70E
E1C70E
E1C70E
E1C70E
E1C70E
E1C70E
FFC7FE
7F83FC
3F01F8
ENDCHAR
STARTCHAR 0078
ENCODING 120
SWIDTH 791 0
DWIDTH 19 0
BBX 17 14 1 0
BITMAP
E00380
E00380
E00380
E00380
E00380
E00380
7FFF00
7FFF00
FFFF80
E00380
E00380
E00380
E00380
E00380
ENDCHAR
STARTCHAR 0079
ENCODING 121
SWIDTH 791 0
DWIDTH 19 0
BBX 17 14 1 0
BITMAP
E00380
E00380
E00380
E00380
E00380
E00380
FFFF80
7FFF80
3FFF80
000380
000380
7FFF80
7FFF00
7FFE00
ENDCHAR
STARTCHAR 007A
ENCODING 122
SWIDTH 750 0
DWIDTH 18 0
BBX 17 14 1 0
BITMAP
FFFE00
FFFF00
FFFF80
000380
000380
000380
3FFF80
7FFF00
FFFE00
E00000
E00000
FFFF80
7FFF80
3FFF80
ENDCHAR
STARTCHAR 007B
ENCODING 123
SWIDTH 291 0
DWIDTH 7 0
BBX 6 18 1 -2
BITMAP
FC
FC
FC
E0
E0
E0
E0
E0
E0
E0
E0
E0
E0
E0
E0
FC
FC
FC
ENDCHAR
STARTCHAR 007C
ENCODING 124
SWIDTH 166 0
DWIDTH 4 0
BBX 3 18 1 -2
BITMAP
E0
E0
E0
E0
E0
E0
E0
E0
E0
E0
E0
E0
E0
E0
E0
E0
E0
E0
ENDCHAR
STARTCHAR 007D
ENCODING 125
SWIDTH 333 0
DWIDTH 8 0
BBX 6 18 2 -2
BITMAP
FC
FC
FC
1C
1C
1C
1C
1C
1C
1C
1C
1C
1C
1C
1C
FC
FC
FC
ENDCHAR
STARTCHAR 007E
ENCODING 126
SWIDTH 625 0
DWIDTH 15 0
BBX 11 4 2 5
BITMAP
3C40
7FE0
FFC0
4780
ENDCHAR
STARTCHAR 00A1
ENCODING 161
SWIDTH 166 0
DWIDTH 4 0
BBX 2 14 1 -4
BITMAP
C0
C0
C0
00
C0
C0
C0
C0
C0
C0
C0
C0
C0
C0
ENDCHAR
STARTCHAR 00A2
ENCODING 162
SWIDTH 583 0
DWIDTH 14 0
BBX 11 13 1 2
BITMAP
0700
3FE0
7FE0
FFE0
E700
E700
E700
E700
FFE0
7FE0
3FE0
0700
0700
ENDCHAR
STARTCHAR 00A3
ENCODING 163
SWIDTH 750 0
DWIDTH 18 0
BBX 16 14 1 0
BITMAP
1FFF
7FFF
7FFF
7000
7000
FFFF
FFFF
FFFF
7000
7000
7000
7FFF
7FFF
7FFF
ENDCHAR
STARTCHAR 00A4
ENCODING 164
SWIDTH 291 0
DWIDTH 7 0
BBX 0 0 0 0
BITMAP
ENDCHAR
STARTCHAR 00A5
ENCODING 165
SWIDTH 791 0
DWIDTH 19 0
BBX 17 14 1 0
BITMAP
E00380
E00380
E00380
E00380
E00380
E00380
FFFF80
7FFF00
3FFE00
01C000
01C000
01C000
01C000
01C000
ENDCHAR
STARTCHAR 00A6
ENCODING 166
SWIDTH 125 0
DWIDTH 3 0
BBX 1 22 1 -5
BITMAP
80
80
80
80
80
80
80
80
80
00
00
00
00
80
80
80
80
80
80
80
80
80
ENDCHAR
STARTCHAR 00A7
ENCODING 167
SWIDTH 291 0
DWIDTH 7 0
BBX 0 0 0 0
BITMAP
ENDCHAR
STARTCHAR 00A8
ENCODING 168
SWIDTH 500 0
DWIDTH 12 0
BBX 6 2 3 12
BITMAP
CC
CC
ENDCHAR
STARTCHAR 00A9
ENCODING 169
SWIDTH 625 0
DWIDTH 15 0
BBX 13 14 1 2
BITMAP
0F80
3040
6020
4FD0
9010
9008
9008
9008
9008
9010
4FD0
6020
3040
0F80
ENDCHAR
STARTCHAR 00AA
ENCODING 170
SWIDTH 291 0
DWIDTH 7 0
BBX 0 0 0 0
BITMAP
ENDCHAR
STARTCHAR 00AB
ENCODING 171
SWIDTH 291 0
DWIDTH 7 0
BBX 0 0 0 0
BITMAP
ENDCHAR
STARTCHAR 00AC
ENCODING 172
SWIDTH 291 0
DWIDTH 7 0
BBX 0 0 0 0
BITMAP
ENDCHAR
STARTCHAR 00AE
ENCODING 174
SWIDTH 625 0
DWIDTH 15 0
BBX 13 14 1 2
BITMAP
0F80
3040
6020
4010
9FD0
9028
9028
9FC8
9028
9030
5030
6020
3040
0F80
ENDCHAR
STARTCHAR 00AF
ENCODING 175
SWIDTH 291 0
DWIDTH 7 0
BBX 0 0 0 0
BITMAP
ENDCHAR
STARTCHAR 00B0
ENCODING 176
SWIDTH 375 0
DWIDTH 9 0
BBX 7 7 1 9
BITMAP
38
C4
82
82
82
C4
38
ENDCHAR
STARTCHAR 00B1
ENCODING 177
SWIDTH 291 0
DWIDTH 7 0
BBX 0 0 0 0
BITMAP
ENDCHAR
STARTCHAR 00B2
ENCODING 178
SWIDTH 291 0
DWIDTH 7 0
BBX 0 0 0 0
BITMAP
ENDCHAR
STARTCHAR 00B3
ENCODING 179
SWIDTH 291 0
DWIDTH 7 0
BBX 0 0 0 0
BITMAP
ENDCHAR
STARTCHAR 00B4
ENCODING 180
SWIDTH 416 0
DWIDTH 10 0
BBX 4 2 3 13
BITMAP
70
E0
ENDCHAR
STARTCHAR 00B5
ENCODING 181
SWIDTH 291 0
DWIDTH 7 0
BBX 0 0 0 0
BITMAP
ENDCHAR
STARTCHAR 00B6
ENCODING 182
SWIDTH 541 0
DWIDTH 13 0
BBX 11 13 1 3
BITMAP
1FE0
7C40
FC40
FC40
FC40
FC40
FC40
7C40
1C40
0440
0440
0440
0440
ENDCHAR
STARTCHAR 00B7
ENCODING 183
SWIDTH 291 0
DWIDTH 7 0
BBX 0 0 0 0
BITMAP
ENDCHAR
STARTCHAR 00B8
ENCODING 184
SWIDTH 166 0
DWIDTH 4 0
BBX 4 4 0 -4
BITMAP
80
80
70
F0
ENDCHAR
STARTCHAR 00B9
ENCODING 185
SWIDTH 291 0
DWIDTH 7 0
BBX 0 0 0 0
BITMAP
ENDCHAR
STARTCHAR 00BA
ENCODING 186
SWIDTH 333 0
DWIDTH 8 0
BBX 0 0 0 0
BITMAP
ENDCHAR
STARTCHAR 00BB
ENCODING 187
SWIDTH 291 0
DWIDTH 7 0
BBX 0 0 0 0
BITMAP
ENDCHAR
STARTCHAR 00BC
ENCODING 188
SWIDTH 291 0
DWIDTH 7 0
BBX 0 0 0 0
BITMAP
ENDCHAR
STARTCHAR 00BD
ENCODING 189
SWIDTH 291 0
DWIDTH 7 0
BBX 0 0 0 0
BITMAP
ENDCHAR
STARTCHAR 00BE
ENCODING 190
SWIDTH 291 0
DWIDTH 7 0
BBX 0 0 0 0
BITMAP
ENDCHAR
STARTCHAR 00BF
ENCODING 191
SWIDTH 750 0
DWIDTH 18 0
BBX 16 14 1 -4
BITMAP
0006
0007
0006
0007
000F
3FFE
FFFE
FFFC
E000
E000
E000
FFFF
7FFF
3FFF
ENDCHAR
STARTCHAR 00C0
ENCODING 192
SWIDTH 708 0
DWIDTH 17 0
BBX 17 18 0 0
BITMAP
01C000
00E000
000000
000000
07F000
0FF800
1FFC00
1C1C00
3C0C00
380E00
3BFE00
3BFE00
7FFF00
700700
700700
700700
F00380
E00380
ENDCHAR
STARTCHAR 00C1
ENCODING 193
SWIDTH 708 0
DWIDTH 17 0
BBX 17 18 0 0
BITMAP
00E000
01C000
000000
000000
07F000
0FF800
1FFC00
1C1C00
3C0C00
380E00
3BFE00
3BFE00
7FFF00
700700
700700
700700
F00380
E00380
ENDCHAR
STARTCHAR 00C2
ENCODING 194
SWIDTH 708 0
DWIDTH 17 0
BBX 17 18 0 0
BITMAP
01C000
03C000
066000
000000
07F000
0FF800
1FFC00
1C1C00
3C0C00
380E00
3BFE00
3BFE00
7FFF00
700700
700700
700700
F00380
E00380
ENDCHAR
STARTCHAR 00C3
ENCODING 195
SWIDTH 708 0
DWIDTH 17 0
BBX 17 18 0 0
BITMAP
03C800
07FC00
03F000
000000
07F000
0FF800
1FFC00
1C1C00
3C0C00
380E00
3BFE00
3BFE00
7FFF00
700700
700700
700700
F00380
E00380
ENDCHAR
STARTCHAR 00C4
ENCODING 196
SWIDTH 708 0
DWIDTH 17 0
BBX 17 18 0 0
BITMAP
077000
077000
000000
000000
07F000
0FF800
1FFC00
1C1C00
3C0C00
380E00
3BFE00
3BFE00
7FFF00
700700
700700
700700
F00380
E00380
ENDCHAR
STARTCHAR 00C5
ENCODING 197
SWIDTH 708 0
DWIDTH 17 0
BBX 17 19 0 0
BITMAP
00C000
012000
012000
012000
00C000
07F000
0FF800
1FFC00
1C1C00
3C0C00
380E00
3BFE00
3BFE00
7FFF00
700700
700700
700700
F00380
E00380
ENDCHAR
STARTCHAR 00C6
ENCODING 198
SWIDTH 916 0
DWIDTH 22 0
BBX 20 14 1 0
BITMAP
0F87F0
1FDFF0
1FFFF0
387800
387800
3FFFF0
7FFFF0
77FFF0
703800
703800
F03800
E01FF0
E01FF0
E00FF0
ENDCHAR
STARTCHAR 00C7
ENCODING 199
SWIDTH 750 0
DWIDTH 18 0
BBX 16 18 1 -4
BITMAP
3FFF
7FFF
FFFF
E000
E000
E000
E000
E000
E000
E000
E000
FFFF
7FFF
3FFF
0100
0100
00E0
01E0
ENDCHAR
STARTCHAR 00C8
ENCODING 200
SWIDTH 750 0
DWIDTH 18 0
BBX 16 18 1 0
BITMAP
01C0
00E0
0000
0000
3FFF
7FFF
FFFF
E000
E000
FFFF
FFFF
FFFF
E000
E000
E000
FFFF
7FFF
3FFF
ENDCHAR
STARTCHAR 00C9
ENCODING 201
SWIDTH 750 0
DWIDTH 18 0
BBX 16 18 1 0
BITMAP
00E0
01C0
0000
0000
3FFF
7FFF
FFFF
E000
E000
FFFF
FFFF
FFFF
E000
E000
E000
FFFF
7FFF
3FFF
ENDCHAR
STARTCHAR 00CA
ENCODING 202
SWIDTH 750 0
DWIDTH 18 0
BBX 16 18 1 0
BITMAP
01C0
03C0
0660
0000
3FFF
7FFF
FFFF
E000
E000
FFFF
FFFF
FFFF
E000
E000
E000
FFFF
7FFF
3FFF
ENDCHAR
STARTCHAR 00CB
ENCODING 203
SWIDTH 750 0
DWIDTH 18 0
BBX 16 18 1 0
BITMAP
0770
0770
0000
0000
3FFF
7FFF
FFFF
E000
E000
FFFF
FFFF
FFFF
E000
E000
E000
FFFF
7FFF
3FFF
ENDCHAR
STARTCHAR 00CC
ENCODING 204
SWIDTH 166 0
DWIDTH 4 0
BBX 4 18 0 0
BITMAP
E0
70
00
00
70
70
70
70
70
70
70
70
70
70
70
70
70
70
ENDCHAR
STARTCHAR 00CD
ENCODING 205
SWIDTH 166 0
DWIDTH 4 0
BBX 4 18 1 0
BITMAP
70
E0
00
00
E0
E0
E0
E0
E0
E0
E0
E0
E0
E0
E0
E0
E0
E0
ENDCHAR
STARTCHAR 00CE
ENCODING 206
SWIDTH 166 0
DWIDTH 4 0
BBX 6 19 -2 0
BITMAP
38
78
CC
00
00
1C
1C
1C
1C
1C
1C
1C
1C
1C
1C
1C
1C
1C
1C
ENDCHAR
STARTCHAR 00CF
ENCODING 207
SWIDTH 166 0
DWIDTH 4 0
BBX 7 18 -2 0
BITMAP
EE
EE
00
00
1C
1C
1C
1C
1C
1C
1C
1C
1C
1C
1C
1C
1C
1C
ENDCHAR
STARTCHAR 00D0
ENCODING 208
SWIDTH 791 0
DWIDTH 19 0
BBX 17 14 2 0
BITMAP
FFFE00
FFFF00
FFFF00
E00780
E00380
E00380
E00380
E00380
E00380
E00380
E00380
FFFF80
FFFF00
FFFE00
ENDCHAR
STARTCHAR 00D1
ENCODING 209
SWIDTH 791 0
DWIDTH 19 0
BBX 17 18 0 0
BITMAP
03C800
07FC00
03F000
000000
3F0380
7F8380
FFC380
E1C380
E1C380
E1C380
E1C380
E1C380
E1C380
E1C380
E1C380
E1FF80
E0FF00
E07E00
ENDCHAR
STARTCHAR 00D2
ENCODING 210
SWIDTH 791 0
DWIDTH 19 0
BBX 17 18 1 0
BITMAP
038000
01C000
000000
000000
3FFE00
7FFF00
FFFF80
E00380
E00380
E00380
E00380
E00380
E00380
E00380
E00380
FFFF80
7FFF00
3FFE00
ENDCHAR
STARTCHAR 00D3
ENCODING 211
SWIDTH 791 0
DWIDTH 19 0
BBX 17 19 1 0
BITMAP
01C000
038000
000000
000000
000000
3FFE00
7FFF00
FFFF80
E00380
E00380
E00380
E00380
E00380
E00380
E00380
E00380
FFFF80
7FFF00
3FFE00
ENDCHAR
STARTCHAR 00D4
ENCODING 212
SWIDTH 791 0
DWIDTH 19 0
BBX 17 18 1 0
BITMAP
038000
078000
0CC000
000000
3FFE00
7FFF00
FFFF80
E00380
E00380
E00380
E00380
E00380
E00380
E00380
E00380
FFFF80
7FFF00
3FFE00
ENDCHAR
STARTCHAR 00D5
ENCODING 213
SWIDTH 791 0
DWIDTH 19 0
BBX 17 18 1 0
BITMAP
079000
0FF800
07E000
000000
3FFE00
7FFF00
FFFF80
E00380
E00380
E00380
E00380
E00380
E00380
E00380
E00380
FFFF80
7FFF00
3FFE00
ENDCHAR
STARTCHAR 00D6
ENCODING 214
SWIDTH 791 0
DWIDTH 19 0
BBX 17 18 1 0
BITMAP
077000
077000
000000
000000
3FFE00
7FFF00
FFFF80
E00380
E00380
E00380
E00380
E00380
E00380
E00380
E00380
FFFF80
7FFF00
3FFE00
ENDCHAR
STARTCHAR 00D7
ENCODING 215
SWIDTH 458 0
DWIDTH 11 0
BBX 9 10 1 3
BITMAP
8080
C100
6200
3400
1800
1C00
2400
4200
C100
8080
ENDCHAR
STARTCHAR 00D8
ENCODING 216
SWIDTH 791 0
DWIDTH 19 0
BBX 17 14 1 0
BITMAP
3FFE00
7FFF00
FFFF80
E07380
E07380
E07380
E3F380
E7E380
EFC380
EE0380
EE0380
FFFF80
7FFF00
3FFE00
ENDCHAR
STARTCHAR 00D9
ENCODING 217
SWIDTH 791 0
DWIDTH 19 0
BBX 17 18 1 0
BITMAP
038000
01C000
000000
000000
E00380
E00380
E00380
E00380
E00380
E00380
E00380
E00380
E00380
E00380
E00380
FFFF80
7FFF00
3FFE00
ENDCHAR
STARTCHAR 00DA
ENCODING 218
SWIDTH 791 0
DWIDTH 19 0
BBX 17 18 1 0
BITMAP
00E000
01C000
000000
000000
E00380
E00380
E00380
E00380
E00380
E00380
E00380
E00380
E00380
E00380
E00380
FFFF80
7FFF00
3FFE00
ENDCHAR
STARTCHAR 00DB
ENCODING 219
SWIDTH 791 0
DWIDTH 19 0
BBX 17 18 1 0
BITMAP
038000
078000
0CC000
000000
E00380
E00380
E00380
E00380
E00380
E00380
E00380
E00380
E00380
E00380
E00380
FFFF80
7FFF00
3FFE00
ENDCHAR
STARTCHAR 00DC
ENCODING 220
SWIDTH 791 0
DWIDTH 19 0
BBX 17 18 1 0
BITMAP
0EE000
0EE000
000000
000000
E00380
E00380
E00380
E00380
E00380
E00380
E00380
E00380
E00380
E00380
E00380
FFFF80
7FFF00
3FFE00
ENDCHAR
STARTCHAR 00DD
ENCODING 221
SWIDTH 791 0
DWIDTH 19 0
BBX 17 19 1 0
BITMAP
00E000
01C000
000000
000000
000000
E00380
E00380
E00380
E00380
E00380
E00380
FFFF80
7FFF00
3FFE00
01C000
01C000
01C000
01C000
01C000
ENDCHAR
STARTCHAR 00DE
ENCODING 222
SWIDTH 291 0
DWIDTH 7 0
BBX 0 0 0 0
BITMAP
ENDCHAR
STARTCHAR 00DF
ENCODING 223
SWIDTH 791 0
DWIDTH 19 0
BBX 17 14 1 0
BITMAP
3FFE00
7FFF00
FFFF80
E00380
E00380
E00380
EFFF00
EFFF00
EFFF80
E00380
E00380
EFFF80
EFFF00
EFFE00
ENDCHAR
STARTCHAR 00E0
ENCODING 224
SWIDTH 750 0
DWIDTH 18 0
BBX 16 18 1 0
BITMAP
01C0
00E0
0000
0000
FFFC
FFFE
FFFF
0007
0007
3FF7
7FF7
FFF7
E007
E007
E007
FFFF
7FFE
3FFC
ENDCHAR
STARTCHAR 00E1
ENCODING 225
SWIDTH 750 0
DWIDTH 18 0
BBX 16 18 1 0
BITMAP
01C0
0380
0000
0000
FFFC
FFFE
FFFF
0007
0007
3FF7
7FF7
FFF7
E007
E007
E007
FFFF
7FFE
3FFC
ENDCHAR
STARTCHAR 00E2
ENCODING 226
SWIDTH 750 0
DWIDTH 18 0
BBX 16 18 1 0
BITMAP
0380
0780
0CC0
0000
FFFC
FFFE
FFFF
0007
0007
3FF7
7FF7
FFF7
E007
E007
E007
FFFF
7FFE
3FFC
ENDCHAR
STARTCHAR 00E3
ENCODING 227
SWIDTH 750 0
DWIDTH 18 0
BBX 16 18 1 0
BITMAP
0790
0FF8
07E0
0000
FFFC
FFFE
FFFF
0007
0007
3FF7
7FF7
FFF7
E007
E007
E007
FFFF
7FFE
3FFC
ENDCHAR
STARTCHAR 00E4
ENCODING 228
SWIDTH 750 0
DWIDTH 18 0
BBX 16 17 1 0
BITMAP
0770
0770
0000
FFFC
FFFE
FFFF
0007
0007
3FF7
7FF7
FFF7
E007
E007
E007
FFFF
7FFE
3FFC
ENDCHAR
STARTCHAR 00E5
ENCODING 229
SWIDTH 750 0
DWIDTH 18 0
BBX 16 19 1 0
BITMAP
0180
0240
0240
0240
0180
FFFC
FFFE
FFFF
0007
0007
3FF7
7FF7
FFF7
E007
E007
E007
FFFF
7FFE
3FFC
ENDCHAR
STARTCHAR 00E6
ENCODING 230
SWIDTH 916 0
DWIDTH 22 0
BBX 21 14 1 0
BITMAP
FF9FC0
FFFFF0
FFFFF0
00F070
007038
007070
3E77F0
FE77F0
FE77C0
E07000
E0F000
FFFFF0
FFFFF0
3FFFF0
ENDCHAR
STARTCHAR 00E7
ENCODING 231
SWIDTH 750 0
DWIDTH 18 0
BBX 16 18 1 -4
BITMAP
3FFF
7FFF
FFFF
E000
E000
E000
E000
E000
E000
E000
E000
FFFF
7FFF
3FFF
0100
0100
00E0
01E0
ENDCHAR
STARTCHAR 00E8
ENCODING 232
SWIDTH 750 0
DWIDTH 18 0
BBX 16 18 0 0
BITMAP
01C0
00E0
0000
0000
3FFC
7FFE
FFFF
E007
E007
E007
EFFF
EFFE
EFFC
E000
E000
FFFF
7FFF
3FFF
ENDCHAR
STARTCHAR 00E9
ENCODING 233
SWIDTH 750 0
DWIDTH 18 0
BBX 16 18 0 0
BITMAP
00E0
01C0
0000
0000
3FFC
7FFE
FFFF
E007
E007
E007
EFFF
EFFE
EFFC
E000
E000
FFFF
7FFF
3FFF
ENDCHAR
STARTCHAR 00EA
ENCODING 234
SWIDTH 750 0
DWIDTH 18 0
BBX 16 18 0 0
BITMAP
01C0
03C0
0660
0000
3FFC
7FFE
FFFF
E007
E007
E007
EFFF
EFFE
EFFC
E000
E000
FFFF
7FFF
3FFF
ENDCHAR
STARTCHAR 00EB
ENCODING 235
SWIDTH 750 0
DWIDTH 18 0
BBX 16 18 0 0
BITMAP
0770
0770
0000
0000
3FFC
7FFE
FFFF
E007
E007
E007
EFFF
EFFE
EFFC
E000
E000
FFFF
7FFF
3FFF
ENDCHAR
STARTCHAR 00EC
ENCODING 236
SWIDTH 166 0
DWIDTH 4 0
BBX 4 18 0 0
BITMAP
E0
70
00
00
70
70
70
70
70
70
70
70
70
70
70
70
70
70
ENDCHAR
STARTCHAR 00ED
ENCODING 237
SWIDTH 166 0
DWIDTH 4 0
BBX 4 18 1 0
BITMAP
70
E0
00
00
E0
E0
E0
E0
E0
E0
E0
E0
E0
E0
E0
E0
E0
E0
ENDCHAR
STARTCHAR 00EE
ENCODING 238
SWIDTH 166 0
DWIDTH 4 0
BBX 6 19 -2 0
BITMAP
38
78
CC
00
00
1C
1C
1C
1C
1C
1C
1C
1C
1C
1C
1C
1C
1C
1C
ENDCHAR
STARTCHAR 00EF
ENCODING 239
SWIDTH 166 0
DWIDTH 4 0
BBX 7 18 -2 0
BITMAP
EE
EE
00
00
1C
1C
1C
1C
1C
1C
1C
1C
1C
1C
1C
1C
1C
1C
ENDCHAR
STARTCHAR 00F0
ENCODING 240
SWIDTH 291 0
DWIDTH 7 0
BBX 0 0 0 0
BITMAP
ENDCHAR
STARTCHAR 00F1
ENCODING 241
SWIDTH 791 0
DWIDTH 19 0
BBX 17 18 0 0
BITMAP
03C800
07FC00
03F000
000000
3F0380
7F8380
FFC380
E1C380
E1C380
E1C380
E1C380
E1C380
E1C380
E1C380
E1C380
E1FF80
E0FF00
E07E00
ENDCHAR
STARTCHAR 00F2
ENCODING 242
SWIDTH 791 0
DWIDTH 19 0
BBX 17 18 1 0
BITMAP
038000
01C000
000000
000000
3FFE00
7FFF00
FFFF80
E00380
E00380
E00380
E00380
E00380
E00380
E00380
E00380
FFFF80
7FFF00
3FFE00
ENDCHAR
STARTCHAR 00F3
ENCODING 243
SWIDTH 791 0
DWIDTH 19 0
BBX 17 19 1 0
BITMAP
01C000
038000
000000
000000
000000
3FFE00
7FFF00
FFFF80
E00380
E00380
E00380
E00380
E00380
E00380
E00380
E00380
FFFF80
7FFF00
3FFE00
ENDCHAR
STARTCHAR 00F4
ENCODING 244
SWIDTH 791 0
DWIDTH 19 0
BBX 17 18 1 0
BITMAP
038000
078000
0CC000
000000
3FFE00
7FFF00
FFFF80
E00380
E00380
E00380
E00380
E00380
E00380
E00380
E00380
FFFF80
7FFF00
3FFE00
ENDCHAR
STARTCHAR 00F5
ENCODING 245
SWIDTH 791 0
DWIDTH 19 0
BBX 17 18 1 0
BITMAP
079000
0FF800
07E000
000000
3FFE00
7FFF00
FFFF80
E00380
E00380
E00380
E00380
E00380
E00380
E00380
E00380
FFFF80
7FFF00
3FFE00
ENDCHAR
STARTCHAR 00F6
ENCODING 246
SWIDTH 791 0
DWIDTH 19 0
BBX 17 18 1 0
BITMAP
077000
077000
000000
000000
3FFE00
7FFF00
FFFF80
E00380
E00380
E00380
E00380
E00380
E00380
E00380
E00380
FFFF80
7FFF00
3FFE00
ENDCHAR
STARTCHAR 00F7
ENCODING 247
SWIDTH 375 0
DWIDTH 9 0
BBX 6 12 1 3
BITMAP
38
38
38
00
00
FC
FC
00
00
38
38
38
ENDCHAR
STARTCHAR 00F8
ENCODING 248
SWIDTH 791 0
DWIDTH 19 0
BBX 17 14 1 0
BITMAP
3FFE00
7FFF00
FFFF80
E07380
E07380
E07380
E3F380
E7E380
EFC380
EE0380
EE0380
FFFF80
7FFF00
3FFE00
ENDCHAR
STARTCHAR 00F9
ENCODING 249
SWIDTH 791 0
DWIDTH 19 0
BBX 17 18 1 0
BITMAP
038000
01C000
000000
000000
E00380
E00380
E00380
E00380
E00380
E00380
E00380
E00380
E00380
E00380
E00380
FFFF80
7FFF00
3FFE00
ENDCHAR
STARTCHAR 00FA
ENCODING 250
SWIDTH 791 0
DWIDTH 19 0
BBX 17 18 1 0
BITMAP
00E000
01C000
000000
000000
E00380
E00380
E00380
E00380
E00380
E00380
E00380
E00380
E00380
E00380
E00380
FFFF80
7FFF00
3FFE00
ENDCHAR
STARTCHAR 00FB
ENCODING 251
SWIDTH 791 0
DWIDTH 19 0
BBX 17 18 1 0
BITMAP
038000
078000
0CC000
000000
E00380
E00380
E00380
E00380
E00380
E00380
E00380
E00380
E00380
E00380
E00380
FFFF80
7FFF00
3FFE00
ENDCHAR
STARTCHAR 00FC
ENCODING 252
SWIDTH 791 0
DWIDTH 19 0
BBX 17 18 1 0
BITMAP
0EE000
0EE000
000000
000000
E00380
E00380
E00380
E00380
E00380
E00380
E00380
E00380
E00380
E00380
E00380
FFFF80
7FFF00
3FFE00
ENDCHAR
STARTCHAR 00FD
ENCODING 253
SWIDTH 791 0
DWIDTH 19 0
BBX 17 19 1 0
BITMAP
00E000
01C000
000000
000000
000000
E00380
E00380
E00380
E00380
E00380
E00380
FFFF80
7FFF00
3FFE00
01C000
01C000
01C000
01C000
01C000
ENDCHAR
STARTCHAR 00FE
ENCODING 254
SWIDTH 291 0
DWIDTH 7 0
BBX 0 0 0 0
BITMAP
ENDCHAR
STARTCHAR 00FF
ENCODING 255
SWIDTH 791 0
DWIDTH 19 0
BBX 17 18 1 0
BITMAP
0EE000
0EE000
000000
000000
E00380
E00380
E00380
E00380
E00380
E00380
FFFF80
7FFF80
3FFF80
000380
000380
7FFF80
7FFF00
7FFE00
ENDCHAR
STARTCHAR 0100
ENCODING 256
SWIDTH 291 0
DWIDTH 7 0
BBX 0 0 0 0
BITMAP
ENDCHAR
STARTCHAR 0101
ENCODING 257
SWIDTH 291 0
DWIDTH 7 0
BBX 0 0 0 0
BITMAP
ENDCHAR
STARTCHAR 0102
ENCODING 258
SWIDTH 291 0
DWIDTH 7 0
BBX 0 0 0 0
BITMAP
ENDCHAR
STARTCHAR 0103
ENCODING 259
SWIDTH 291 0
DWIDTH 7 0
BBX 0 0 0 0
BITMAP
ENDCHAR
STARTCHAR 0104
ENCODING 260
SWIDTH 291 0
DWIDTH 7 0
BBX 0 0 0 0
BITMAP
ENDCHAR
STARTCHAR 0105
ENCODING 261
SWIDTH 291 0
DWIDTH 7 0
BBX 0 0 0 0
BITMAP
ENDCHAR
STARTCHAR 0106
ENCODING 262
SWIDTH 291 0
DWIDTH 7 0
BBX 0 0 0 0
BITMAP
ENDCHAR
STARTCHAR 0107
ENCODING 263
SWIDTH 291 0
DWIDTH 7 0
BBX 0 0 0 0
BITMAP
ENDCHAR
STARTCHAR 0108
ENCODING 264
SWIDTH 291 0
DWIDTH 7 0
BBX 0 0 0 0
BITMAP
ENDCHAR
STARTCHAR 0109
ENCODING 265
SWIDTH 291 0
DWIDTH 7 0
BBX 0 0 0 0
BITMAP
ENDCHAR
STARTCHAR 010A
ENCODING 266
SWIDTH 291 0
DWIDTH 7 0
BBX 0 0 0 0
BITMAP
ENDCHAR
STARTCHAR 010B
ENCODING 267
SWIDTH 291 0
DWIDTH 7 0
BBX 0 0 0 0
BITMAP
ENDCHAR
STARTCHAR 010C
ENCODING 268
SWIDTH 291 0
DWIDTH 7 0
BBX 0 0 0 0
BITMAP
ENDCHAR
STARTCHAR 010D
ENCODING 269
SWIDTH 291 0
DWIDTH 7 0
BBX 0 0 0 0
BITMAP
ENDCHAR
STARTCHAR 010E
ENCODING 270
SWIDTH 291 0
DWIDTH 7 0
BBX 0 0 0 0
BITMAP
ENDCHAR
STARTCHAR 010F
ENCODING 271
SWIDTH 291 0
DWIDTH 7 0
BBX 0 0 0 0
BITMAP
ENDCHAR
STARTCHAR 0110
ENCODING 272
SWIDTH 291 0
DWIDTH 7 0
BBX 0 0 0 0
BITMAP
ENDCHAR
STARTCHAR 0111
ENCODING 273
SWIDTH 291 0
DWIDTH 7 0
BBX 0 0 0 0
BITMAP
ENDCHAR
STARTCHAR 0112
ENCODING 274
SWIDTH 291 0
DWIDTH 7 0
BBX 0 0 0 0
BITMAP
ENDCHAR
STARTCHAR 0113
ENCODING 275
SWIDTH 291 0
DWIDTH 7 0
BBX 0 0 0 0
BITMAP
ENDCHAR
STARTCHAR 0114
ENCODING 276
SWIDTH 291 0
DWIDTH 7 0
BBX 0 0 0 0
BITMAP
ENDCHAR
STARTCHAR 0115
ENCODING 277
SWIDTH 291 0
DWIDTH 7 0
BBX 0 0 0 0
BITMAP
ENDCHAR
STARTCHAR 0116
ENCODING 278
SWIDTH 291 0
DWIDTH 7 0
BBX 0 0 0 0
BITMAP
ENDCHAR
STARTCHAR 0117
ENCODING 279
SWIDTH 291 0
DWIDTH 7 0
BBX 0 0 0 0
BITMAP
ENDCHAR
STARTCHAR 0118
ENCODING 280
SWIDTH 291 0
DWIDTH 7 0
BBX 0 0 0 0
BITMAP
ENDCHAR
STARTCHAR 0119
ENCODING 281
SWIDTH 291 0
DWIDTH 7 0
BBX 0 0 0 0
BITMAP
ENDCHAR
STARTCHAR 011A
ENCODING 282
SWIDTH 291 0
DWIDTH 7 0
BBX 0 0 0 0
BITMAP
ENDCHAR
STARTCHAR 011B
ENCODING 283
SWIDTH 291 0
DWIDTH 7 0
BBX 0 0 0 0
BITMAP
ENDCHAR
STARTCHAR 011C
ENCODING 284
SWIDTH 291 0
DWIDTH 7 0
BBX 0 0 0 0
BITMAP
ENDCHAR
STARTCHAR 011D
ENCODING 285
SWIDTH 291 0
DWIDTH 7 0
BBX 0 0 0 0
BITMAP
ENDCHAR
STARTCHAR 011E
ENCODING 286
SWIDTH 291 0
DWIDTH 7 0
BBX 0 0 0 0
BITMAP
ENDCHAR
STARTCHAR 011F
ENCODING 287
SWIDTH 291 0
DWIDTH 7 0
BBX 0 0 0 0
BITMAP
ENDCHAR
STARTCHAR 0120
ENCODING 288
SWIDTH 291 0
DWIDTH 7 0
BBX 0 0 0 0
BITMAP
ENDCHAR
STARTCHAR 0121
ENCODING 289
SWIDTH 291 0
DWIDTH 7 0
BBX 0 0 0 0
BITMAP
ENDCHAR
STARTCHAR 0122
ENCODING 290
SWIDTH 291 0
DWIDTH 7 0
BBX 0 0 0 0
BITMAP
ENDCHAR
STARTCHAR 0123
ENCODING 291
SWIDTH 291 0
DWIDTH 7 0
BBX 0 0 0 0
BITMAP
ENDCHAR
STARTCHAR 0124
ENCODING 292
SWIDTH 291 0
DWIDTH 7 0
BBX 0 0 0 0
BITMAP
ENDCHAR
STARTCHAR 0125
ENCODING 293
SWIDTH 291 0
DWIDTH 7 0
BBX 0 0 0 0
BITMAP
ENDCHAR
STARTCHAR 0126
ENCODING 294
SWIDTH 291 0
DWIDTH 7 0
BBX 0 0 0 0
BITMAP
ENDCHAR
STARTCHAR 0127
ENCODING 295
SWIDTH 291 0
DWIDTH 7 0
BBX 0 0 0 0
BITMAP
ENDCHAR
STARTCHAR 0128
ENCODING 296
SWIDTH 291 0
DWIDTH 7 0
BBX 0 0 0 0
BITMAP
ENDCHAR
STARTCHAR 0129
ENCODING 297
SWIDTH 291 0
DWIDTH 7 0
BBX 0 0 0 0
BITMAP
ENDCHAR
STARTCHAR 012A
ENCODING 298
SWIDTH 291 0
DWIDTH 7 0
BBX 0 0 0 0
BITMAP
ENDCHAR
STARTCHAR 012B
ENCODING 299
SWIDTH 291 0
DWIDTH 7 0
BBX 0 0 0 0
BITMAP
ENDCHAR
STARTCHAR 012C
ENCODING 300
SWIDTH 291 0
DWIDTH 7 0
BBX 0 0 0 0
BITMAP
ENDCHAR
STARTCHAR 012D
ENCODING 301
SWIDTH 291 0
DWIDTH 7 0
BBX 0 0 0 0
BITMAP
ENDCHAR
STARTCHAR 012E
ENCODING 302
SWIDTH 291 0
DWIDTH 7 0
BBX 0 0 0 0
BITMAP
ENDCHAR
STARTCHAR 012F
ENCODING 303
SWIDTH 291 0
DWIDTH 7 0
BBX 0 0 0 0
BITMAP
ENDCHAR
STARTCHAR 0130
ENCODING 304
SWIDTH 291 0
DWIDTH 7 0
BBX 0 0 0 0
BITMAP
ENDCHAR
STARTCHAR 0131
ENCODING 305
SWIDTH 1000 0
DWIDTH 24 0
BBX 0 0 0 0
BITMAP
ENDCHAR
STARTCHAR 0132
ENCODING 306
SWIDTH 291 0
DWIDTH 7 0
BBX 0 0 0 0
BITMAP
ENDCHAR
STARTCHAR 0133
ENCODING 307
SWIDTH 291 0
DWIDTH 7 0
BBX 0 0 0 0
BITMAP
ENDCHAR
STARTCHAR 0134
ENCODING 308
SWIDTH 291 0
DWIDTH 7 0
BBX 0 0 0 0
BITMAP
ENDCHAR
STARTCHAR 0135
ENCODING 309
SWIDTH 291 0
DWIDTH 7 0
BBX 0 0 0 0
BITMAP
ENDCHAR
STARTCHAR 0136
ENCODING 310
SWIDTH 291 0
DWIDTH 7 0
BBX 0 0 0 0
BITMAP
ENDCHAR
STARTCHAR 0137
ENCODING 311
SWIDTH 291 0
DWIDTH 7 0
BBX 0 0 0 0
BITMAP
ENDCHAR
STARTCHAR 0138
ENCODING 312
SWIDTH 291 0
DWIDTH 7 0
BBX 0 0 0 0
BITMAP
ENDCHAR
STARTCHAR 0139
ENCODING 313
SWIDTH 291 0
DWIDTH 7 0
BBX 0 0 0 0
BITMAP
ENDCHAR
STARTCHAR 013A
ENCODING 314
SWIDTH 291 0
DWIDTH 7 0
BBX 0 0 0 0
BITMAP
ENDCHAR
STARTCHAR 013B
ENCODING 315
SWIDTH 291 0
DWIDTH 7 0
BBX 0 0 0 0
BITMAP
ENDCHAR
STARTCHAR 013C
ENCODING 316
SWIDTH 291 0
DWIDTH 7 0
BBX 0 0 0 0
BITMAP
ENDCHAR
STARTCHAR 013D
ENCODING 317
SWIDTH 291 0
DWIDTH 7 0
BBX 0 0 0 0
BITMAP
ENDCHAR
STARTCHAR 013E
ENCODING 318
SWIDTH 291 0
DWIDTH 7 0
BBX 0 0 0 0
BITMAP
ENDCHAR
STARTCHAR 013F
ENCODING 319
SWIDTH 291 0
DWIDTH 7 0
BBX 0 0 0 0
BITMAP
ENDCHAR
STARTCHAR 0140
ENCODING 320
SWIDTH 291 0
DWIDTH 7 0
BBX 0 0 0 0
BITMAP
ENDCHAR
STARTCHAR 0141
ENCODING 321
SWIDTH 291 0
DWIDTH 7 0
BBX 0 0 0 0
BITMAP
ENDCHAR
STARTCHAR 0142
ENCODING 322
SWIDTH 291 0
DWIDTH 7 0
BBX 0 0 0 0
BITMAP
ENDCHAR
STARTCHAR 0143
ENCODING 323
SWIDTH 291 0
DWIDTH 7 0
BBX 0 0 0 0
BITMAP
ENDCHAR
STARTCHAR 0144
ENCODING 324
SWIDTH 291 0
DWIDTH 7 0
BBX 0 0 0 0
BITMAP
ENDCHAR
STARTCHAR 0145
ENCODING 325
SWIDTH 291 0
DWIDTH 7 0
BBX 0 0 0 0
BITMAP
ENDCHAR
STARTCHAR 0146
ENCODING 326
SWIDTH 291 0
DWIDTH 7 0
BBX 0 0 0 0
BITMAP
ENDCHAR
STARTCHAR 0147
ENCODING 327
SWIDTH 291 0
DWIDTH 7 0
BBX 0 0 0 0
BITMAP
ENDCHAR
STARTCHAR 0148
ENCODING 328
SWIDTH 291 0
DWIDTH 7 0
BBX 0 0 0 0
BITMAP
ENDCHAR
STARTCHAR 0149
ENCODING 329
SWIDTH 291 0
DWIDTH 7 0
BBX 0 0 0 0
BITMAP
ENDCHAR
STARTCHAR 014A
ENCODING 330
SWIDTH 291 0
DWIDTH 7 0
BBX 0 0 0 0
BITMAP
ENDCHAR
STARTCHAR 014B
ENCODING 331
SWIDTH 291 0
DWIDTH 7 0
BBX 0 0 0 0
BITMAP
ENDCHAR
STARTCHAR 014C
ENCODING 332
SWIDTH 291 0
DWIDTH 7 0
BBX 0 0 0 0
BITMAP
ENDCHAR
STARTCHAR 014D
ENCODING 333
SWIDTH 291 0
DWIDTH 7 0
BBX 0 0 0 0
BITMAP
ENDCHAR
STARTCHAR 014E
ENCODING 334
SWIDTH 291 0
DWIDTH 7 0
BBX 0 0 0 0
BITMAP
ENDCHAR
STARTCHAR 014F
ENCODING 335
SWIDTH 291 0
DWIDTH 7 0
BBX 0 0 0 0
BITMAP
ENDCHAR
STARTCHAR 0150
ENCODING 336
SWIDTH 291 0
DWIDTH 7 0
BBX 0 0 0 0
BITMAP
ENDCHAR
STARTCHAR 0151
ENCODING 337
SWIDTH 291 0
DWIDTH 7 0
BBX 0 0 0 0
BITMAP
ENDCHAR
STARTCHAR 0152
ENCODING 338
SWIDTH 916 0
DWIDTH 22 0
BBX 21 14 1 0
BITMAP
3FFFF8
FFFFF8
FFFFF8
E0F000
E07000
E07FF8
E07FF8
E07FF8
E07000
E07000
E0F000
FFFFF8
FFFFF8
3FDFF8
ENDCHAR
STARTCHAR 0153
ENCODING 339
SWIDTH 958 0
DWIDTH 23 0
BBX 21 14 1 0
BITMAP
3F9FE0
7FFFF0
FFFFF8
E07038
E07038
E07038
E077F8
E077F0
E077E0
E07000
E07000
FFFFF8
7FFFF8
3FFFF8
ENDCHAR
STARTCHAR 0154
ENCODING 340
SWIDTH 291 0
DWIDTH 7 0
BBX 0 0 0 0
BITMAP
ENDCHAR
STARTCHAR 0155
ENCODING 341
SWIDTH 291 0
DWIDTH 7 0
BBX 0 0 0 0
BITMAP
ENDCHAR
STARTCHAR 0156
ENCODING 342
SWIDTH 291 0
DWIDTH 7 0
BBX 0 0 0 0
BITMAP
ENDCHAR
STARTCHAR 0157
ENCODING 343
SWIDTH 291 0
DWIDTH 7 0
BBX 0 0 0 0
BITMAP
ENDCHAR
STARTCHAR 0158
ENCODING 344
SWIDTH 291 0
DWIDTH 7 0
BBX 0 0 0 0
BITMAP
ENDCHAR
STARTCHAR 0159
ENCODING 345
SWIDTH 291 0
DWIDTH 7 0
BBX 0 0 0 0
BITMAP
ENDCHAR
STARTCHAR 015A
ENCODING 346
SWIDTH 291 0
DWIDTH 7 0
BBX 0 0 0 0
BITMAP
ENDCHAR
STARTCHAR 015B
ENCODING 347
SWIDTH 291 0
DWIDTH 7 0
BBX 0 0 0 0
BITMAP
ENDCHAR
STARTCHAR 015C
ENCODING 348
SWIDTH 291 0
DWIDTH 7 0
BBX 0 0 0 0
BITMAP
ENDCHAR
STARTCHAR 015D
ENCODING 349
SWIDTH 291 0
DWIDTH 7 0
BBX 0 0 0 0
BITMAP
ENDCHAR
STARTCHAR 015E
ENCODING 350
SWIDTH 291 0
DWIDTH 7 0
BBX 0 0 0 0
BITMAP
ENDCHAR
STARTCHAR 015F
ENCODING 351
SWIDTH 291 0
DWIDTH 7 0
BBX 0 0 0 0
BITMAP
ENDCHAR
STARTCHAR 0160
ENCODING 352
SWIDTH 291 0
DWIDTH 7 0
BBX 0 0 0 0
BITMAP
ENDCHAR
STARTCHAR 0161
ENCODING 353
SWIDTH 291 0
DWIDTH 7 0
BBX 0 0 0 0
BITMAP
ENDCHAR
STARTCHAR 0162
ENCODING 354
SWIDTH 291 0
DWIDTH 7 0
BBX 0 0 0 0
BITMAP
ENDCHAR
STARTCHAR 0163
ENCODING 355
SWIDTH 291 0
DWIDTH 7 0
BBX 0 0 0 0
BITMAP
ENDCHAR
STARTCHAR 0164
ENCODING 356
SWIDTH 291 0
DWIDTH 7 0
BBX 0 0 0 0
BITMAP
ENDCHAR
STARTCHAR 0165
ENCODING 357
SWIDTH 291 0
DWIDTH 7 0
BBX 0 0 0 0
BITMAP
ENDCHAR
STARTCHAR 0166
ENCODING 358
SWIDTH 291 0
DWIDTH 7 0
BBX 0 0 0 0
BITMAP
ENDCHAR
STARTCHAR 0167
ENCODING 359
SWIDTH 291 0
DWIDTH 7 0
BBX 0 0 0 0
BITMAP
ENDCHAR
STARTCHAR 0168
ENCODING 360
SWIDTH 291 0
DWIDTH 7 0
BBX 0 0 0 0
BITMAP
ENDCHAR
STARTCHAR 0169
ENCODING 361
SWIDTH 291 0
DWIDTH 7 0
BBX 0 0 0 0
BITMAP
ENDCHAR
STARTCHAR 016A
ENCODING 362
SWIDTH 291 0
DWIDTH 7 0
BBX 0 0 0 0
BITMAP
ENDCHAR
STARTCHAR 016B
ENCODING 363
SWIDTH 291 0
DWIDTH 7 0
BBX 0 0 0 0
BITMAP
ENDCHAR
STARTCHAR 016C
ENCODING 364
SWIDTH 291 0
DWIDTH 7 0
BBX 0 0 0 0
BITMAP
ENDCHAR
STARTCHAR 016D
ENCODING 365
SWIDTH 291 0
DWIDTH 7 0
BBX 0 0 0 0
BITMAP
ENDCHAR
STARTCHAR 016E
ENCODING 366
SWIDTH 291 0
DWIDTH 7 0
BBX 0 0 0 0
BITMAP
ENDCHAR
STARTCHAR 016F
ENCODING 367
SWIDTH 291 0
DWIDTH 7 0
BBX 0 0 0 0
BITMAP
ENDCHAR
STARTCHAR 0170
ENCODING 368
SWIDTH 291 0
DWIDTH 7 0
BBX 0 0 0 0
BITMAP
ENDCHAR
STARTCHAR 0171
ENCODING 369
SWIDTH 291 0
DWIDTH 7 0
BBX 0 0 0 0
BITMAP
ENDCHAR
STARTCHAR 0172
ENCODING 370
SWIDTH 291 0
DWIDTH 7 0
BBX 0 0 0 0
BITMAP
ENDCHAR
STARTCHAR 0173
ENCODING 371
SWIDTH 291 0
DWIDTH 7 0
BBX 0 0 0 0
BITMAP
ENDCHAR
STARTCHAR 0174
ENCODING 372
SWIDTH 291 0
DWIDTH 7 0
BBX 0 0 0 0
BITMAP
ENDCHAR
STARTCHAR 0175
ENCODING 373
SWIDTH 291 0
DWIDTH 7 0
BBX 0 0 0 0
BITMAP
ENDCHAR
STARTCHAR 0176
ENCODING 374
SWIDTH 291 0
DWIDTH 7 0
BBX 0 0 0 0
BITMAP
ENDCHAR
STARTCHAR 0177
ENCODING 375
SWIDTH 291 0
DWIDTH 7 0
BBX 0 0 0 0
BITMAP
ENDCHAR
STARTCHAR 0178
ENCODING 376
SWIDTH 750 0
DWIDTH 18 0
BBX 17 18 1 0
BITMAP
0EE000
0EE000
000000
000000
E00380
E00380
E00380
E00380
E00380
E00380
FFFF80
7FFF00
3FFE00
01C000
01C000
01C000
01C000
01C000
ENDCHAR
STARTCHAR 0179
ENCODING 377
SWIDTH 291 0
DWIDTH 7 0
BBX 0 0 0 0
BITMAP
ENDCHAR
STARTCHAR 017A
ENCODING 378
SWIDTH 291 0
DWIDTH 7 0
BBX 0 0 0 0
BITMAP
ENDCHAR
STARTCHAR 017B
ENCODING 379
SWIDTH 291 0
DWIDTH 7 0
BBX 0 0 0 0
BITMAP
ENDCHAR
STARTCHAR 017C
ENCODING 380
SWIDTH 291 0
DWIDTH 7 0
BBX 0 0 0 0
BITMAP
ENDCHAR
STARTCHAR 017D
ENCODING 381
SWIDTH 291 0
DWIDTH 7 0
BBX 0 0 0 0
BITMAP
ENDCHAR
STARTCHAR 017E
ENCODING 382
SWIDTH 291 0
DWIDTH 7 0
BBX 0 0 0 0
BITMAP
ENDCHAR
STARTCHAR 017F
ENCODING 383
SWIDTH 291 0
DWIDTH 7 0
BBX 0 0 0 0
BITMAP
ENDCHAR
STARTCHAR 0192
ENCODING 402
SWIDTH 291 0
DWIDTH 7 0
BBX 0 0 0 0
BITMAP
ENDCHAR
STARTCHAR 01FA
ENCODING 506
SWIDTH 291 0
DWIDTH 7 0
BBX 0 0 0 0
BITMAP
ENDCHAR
STARTCHAR 01FB
ENCODING 507
SWIDTH 291 0
DWIDTH 7 0
BBX 0 0 0 0
BITMAP
ENDCHAR
STARTCHAR 01FC
ENCODING 508
SWIDTH 291 0
DWIDTH 7 0
BBX 0 0 0 0
BITMAP
ENDCHAR
STARTCHAR 01FD
ENCODING 509
SWIDTH 291 0
DWIDTH 7 0
BBX 0 0 0 0
BITMAP
ENDCHAR
STARTCHAR 01FE
ENCODING 510
SWIDTH 291 0
DWIDTH 7 0
BBX 0 0 0 0
BITMAP
ENDCHAR
STARTCHAR 01FF
ENCODING 511
SWIDTH 291 0
DWIDTH 7 0
BBX 0 0 0 0
BITMAP
ENDCHAR
STARTCHAR 02C6
ENCODING 710
SWIDTH 458 0
DWIDTH 11 0
BBX 6 3 3 12
BITMAP
70
78
CC
ENDCHAR
STARTCHAR 02C7
ENCODING 711
SWIDTH 291 0
DWIDTH 7 0
BBX 0 0 0 0
BITMAP
ENDCHAR
STARTCHAR 02C9
ENCODING 713
SWIDTH 291 0
DWIDTH 7 0
BBX 0 0 0 0
BITMAP
ENDCHAR
STARTCHAR 02D8
ENCODING 728
SWIDTH 291 0
DWIDTH 7 0
BBX 0 0 0 0
BITMAP
ENDCHAR
STARTCHAR 02D9
ENCODING 729
SWIDTH 291 0
DWIDTH 7 0
BBX 0 0 0 0
BITMAP
ENDCHAR
STARTCHAR 02DA
ENCODING 730
SWIDTH 458 0
DWIDTH 11 0
BBX 4 5 4 11
BITMAP
60
B0
90
B0
60
ENDCHAR
STARTCHAR 02DB
ENCODING 731
SWIDTH 291 0
DWIDTH 7 0
BBX 0 0 0 0
BITMAP
ENDCHAR
STARTCHAR 02DC
ENCODING 732
SWIDTH 541 0
DWIDTH 13 0
BBX 9 3 2 11
BITMAP
3900
FF80
7E00
ENDCHAR
STARTCHAR 02DD
ENCODING 733
SWIDTH 291 0
DWIDTH 7 0
BBX 0 0 0 0
BITMAP
ENDCHAR
STARTCHAR 0384
ENCODING 900
SWIDTH 291 0
DWIDTH 7 0
BBX 0 0 0 0
BITMAP
ENDCHAR
STARTCHAR 0385
ENCODING 901
SWIDTH 291 0
DWIDTH 7 0
BBX 0 0 0 0
BITMAP
ENDCHAR
STARTCHAR 0386
ENCODING 902
SWIDTH 291 0
DWIDTH 7 0
BBX 0 0 0 0
BITMAP
ENDCHAR
STARTCHAR 0387
ENCODING 903
SWIDTH 291 0
DWIDTH 7 0
BBX 0 0 0 0
BITMAP
ENDCHAR
STARTCHAR 0388
ENCODING 904
SWIDTH 291 0
DWIDTH 7 0
BBX 0 0 0 0
BITMAP
ENDCHAR
STARTCHAR 0389
ENCODING 905
SWIDTH 291 0
DWIDTH 7 0
BBX 0 0 0 0
BITMAP
ENDCHAR
STARTCHAR 038A
ENCODING 906
SWIDTH 291 0
DWIDTH 7 0
BBX 0 0 0 0
BITMAP
ENDCHAR
STARTCHAR 038C
ENCODING 908
SWIDTH 291 0
DWIDTH 7 0
BBX 0 0 0 0
BITMAP
ENDCHAR
STARTCHAR 038E
ENCODING 910
SWIDTH 291 0
DWIDTH 7 0
BBX 0 0 0 0
BITMAP
ENDCHAR
STARTCHAR 038F
ENCODING 911
SWIDTH 291 0
DWIDTH 7 0
BBX 0 0 0 0
BITMAP
ENDCHAR
STARTCHAR 0390
ENCODING 912
SWIDTH 291 0
DWIDTH 7 0
BBX 0 0 0 0
BITMAP
ENDCHAR
STARTCHAR 0391
ENCODING 913
SWIDTH 291 0
DWIDTH 7 0
BBX 0 0 0 0
BITMAP
ENDCHAR
STARTCHAR 0392
ENCODING 914
SWIDTH 291 0
DWIDTH 7 0
BBX 0 0 0 0
BITMAP
ENDCHAR
STARTCHAR 0393
ENCODING 915
SWIDTH 291 0
DWIDTH 7 0
BBX 0 0 0 0
BITMAP
ENDCHAR
STARTCHAR 0394
ENCODING 916
SWIDTH 291 0
DWIDTH 7 0
BBX 0 0 0 0
BITMAP
ENDCHAR
STARTCHAR 0395
ENCODING 917
SWIDTH 291 0
DWIDTH 7 0
BBX 0 0 0 0
BITMAP
ENDCHAR
STARTCHAR 0396
ENCODING 918
SWIDTH 291 0
DWIDTH 7 0
BBX 0 0 0 0
BITMAP
ENDCHAR
STARTCHAR 0397
ENCODING 919
SWIDTH 291 0
DWIDTH 7 0
BBX 0 0 0 0
BITMAP
ENDCHAR
STARTCHAR 0398
ENCODING 920
SWIDTH 291 0
DWIDTH 7 0
BBX 0 0 0 0
BITMAP
ENDCHAR
STARTCHAR 0399
ENCODING 921
SWIDTH 291 0
DWIDTH 7 0
BBX 0 0 0 0
BITMAP
ENDCHAR
STARTCHAR 039A
ENCODING 922
SWIDTH 291 0
DWIDTH 7 0
BBX 0 0 0 0
BITMAP
ENDCHAR
STARTCHAR 039B
ENCODING 923
SWIDTH 291 0
DWIDTH 7 0
BBX 0 0 0 0
BITMAP
ENDCHAR
STARTCHAR 039C
ENCODING 924
SWIDTH 291 0
DWIDTH 7 0
BBX 0 0 0 0
BITMAP
ENDCHAR
STARTCHAR 039D
ENCODING 925
SWIDTH 291 0
DWIDTH 7 0
BBX 0 0 0 0
BITMAP
ENDCHAR
STARTCHAR 039E
ENCODING 926
SWIDTH 291 0
DWIDTH 7 0
BBX 0 0 0 0
BITMAP
ENDCHAR
STARTCHAR 039F
ENCODING 927
SWIDTH 291 0
DWIDTH 7 0
BBX 0 0 0 0
BITMAP
ENDCHAR
STARTCHAR 03A0
ENCODING 928
SWIDTH 291 0
DWIDTH 7 0
BBX 0 0 0 0
BITMAP
ENDCHAR
STARTCHAR 03A1
ENCODING 929
SWIDTH 291 0
DWIDTH 7 0
BBX 0 0 0 0
BITMAP
ENDCHAR
STARTCHAR 03A3
ENCODING 931
SWIDTH 291 0
DWIDTH 7 0
BBX 0 0 0 0
BITMAP
ENDCHAR
STARTCHAR 03A4
ENCODING 932
SWIDTH 291 0
DWIDTH 7 0
BBX 0 0 0 0
BITMAP
ENDCHAR
STARTCHAR 03A5
ENCODING 933
SWIDTH 291 0
DWIDTH 7 0
BBX 0 0 0 0
BITMAP
ENDCHAR
STARTCHAR 03A6
ENCODING 934
SWIDTH 291 0
DWIDTH 7 0
BBX 0 0 0 0
BITMAP
ENDCHAR
STARTCHAR 03A7
ENCODING 935
SWIDTH 291 0
DWIDTH 7 0
BBX 0 0 0 0
BITMAP
ENDCHAR
STARTCHAR 03A8
ENCODING 936
SWIDTH 291 0
DWIDTH 7 0
BBX 0 0 0 0
BITMAP
ENDCHAR
STARTCHAR 03A9
ENCODING 937
SWIDTH 291 0
DWIDTH 7 0
BBX 0 0 0 0
BITMAP
ENDCHAR
STARTCHAR 03AA
ENCODING 938
SWIDTH 291 0
DWIDTH 7 0
BBX 0 0 0 0
BITMAP
ENDCHAR
STARTCHAR 03AB
ENCODING 939
SWIDTH 291 0
DWIDTH 7 0
BBX 0 0 0 0
BITMAP
ENDCHAR
STARTCHAR 03AC
ENCODING 940
SWIDTH 291 0
DWIDTH 7 0
BBX 0 0 0 0
BITMAP
ENDCHAR
STARTCHAR 03AD
ENCODING 941
SWIDTH 291 0
DWIDTH 7 0
BBX 0 0 0 0
BITMAP
ENDCHAR
STARTCHAR 03AE
ENCODING 942
SWIDTH 291 0
DWIDTH 7 0
BBX 0 0 0 0
BITMAP
ENDCHAR
STARTCHAR 03AF
ENCODING 943
SWIDTH 291 0
DWIDTH 7 0
BBX 0 0 0 0
BITMAP
ENDCHAR
STARTCHAR 03B0
ENCODING 944
SWIDTH 291 0
DWIDTH 7 0
BBX 0 0 0 0
BITMAP
ENDCHAR
STARTCHAR 03B1
ENCODING 945
SWIDTH 291 0
DWIDTH 7 0
BBX 0 0 0 0
BITMAP
ENDCHAR
STARTCHAR 03B2
ENCODING 946
SWIDTH 291 0
DWIDTH 7 0
BBX 0 0 0 0
BITMAP
ENDCHAR
STARTCHAR 03B3
ENCODING 947
SWIDTH 291 0
DWIDTH 7 0
BBX 0 0 0 0
BITMAP
ENDCHAR
STARTCHAR 03B4
ENCODING 948
SWIDTH 291 0
DWIDTH 7 0
BBX 0 0 0 0
BITMAP
ENDCHAR
STARTCHAR 03B5
ENCODING 949
SWIDTH 291 0
DWIDTH 7 0
BBX 0 0 0 0
BITMAP
ENDCHAR
STARTCHAR 03B6
ENCODING 950
SWIDTH 291 0
DWIDTH 7 0
BBX 0 0 0 0
BITMAP
ENDCHAR
STARTCHAR 03B7
ENCODING 951
SWIDTH 291 0
DWIDTH 7 0
BBX 0 0 0 0
BITMAP
ENDCHAR
STARTCHAR 03B8
ENCODING 952
SWIDTH 291 0
DWIDTH 7 0
BBX 0 0 0 0
BITMAP
ENDCHAR
STARTCHAR 03B9
ENCODING 953
SWIDTH 291 0
DWIDTH 7 0
BBX 0 0 0 0
BITMAP
ENDCHAR
STARTCHAR 03BA
ENCODING 954
SWIDTH 291 0
DWIDTH 7 0
BBX 0 0 0 0
BITMAP
ENDCHAR
STARTCHAR 03BB
ENCODING 955
SWIDTH 291 0
DWIDTH 7 0
BBX 0 0 0 0
BITMAP
ENDCHAR
STARTCHAR 03BC
ENCODING 956
SWIDTH 291 0
DWIDTH 7 0
BBX 0 0 0 0
BITMAP
ENDCHAR
STARTCHAR 03BD
ENCODING 957
SWIDTH 291 0
DWIDTH 7 0
BBX 0 0 0 0
BITMAP
ENDCHAR
STARTCHAR 03BE
ENCODING 958
SWIDTH 291 0
DWIDTH 7 0
BBX 0 0 0 0
BITMAP
ENDCHAR
STARTCHAR 03BF
ENCODING 959
SWIDTH 291 0
DWIDTH 7 0
BBX 0 0 0 0
BITMAP
ENDCHAR
STARTCHAR 03C0
ENCODING 960
SWIDTH 291 0
DWIDTH 7 0
BBX 0 0 0 0
BITMAP
ENDCHAR
STARTCHAR 03C1
ENCODING 961
SWIDTH 291 0
DWIDTH 7 0
BBX 0 0 0 0
BITMAP
ENDCHAR
STARTCHAR 03C2
ENCODING 962
SWIDTH 291 0
DWIDTH 7 0
BBX 0 0 0 0
BITMAP
ENDCHAR
STARTCHAR 03C3
ENCODING 963
SWIDTH 291 0
DWIDTH 7 0
BBX 0 0 0 0
BITMAP
ENDCHAR
STARTCHAR 03C4
ENCODING 964
SWIDTH 291 0
DWIDTH 7 0
BBX 0 0 0 0
BITMAP
ENDCHAR
STARTCHAR 03C5
ENCODING 965
SWIDTH 291 0
DWIDTH 7 0
BBX 0 0 0 0
BITMAP
ENDCHAR
STARTCHAR 03C6
ENCODING 966
SWIDTH 291 0
DWIDTH 7 0
BBX 0 0 0 0
BITMAP
ENDCHAR
STARTCHAR 03C7
ENCODING 967
SWIDTH 291 0
DWIDTH 7 0
BBX 0 0 0 0
BITMAP
ENDCHAR
STARTCHAR 03C8
ENCODING 968
SWIDTH 291 0
DWIDTH 7 0
BBX 0 0 0 0
BITMAP
ENDCHAR
STARTCHAR 03C9
ENCODING 969
SWIDTH 291 0
DWIDTH 7 0
BBX 0 0 0 0
BITMAP
ENDCHAR
STARTCHAR 03CA
ENCODING 970
SWIDTH 291 0
DWIDTH 7 0
BBX 0 0 0 0
BITMAP
ENDCHAR
STARTCHAR 03CB
ENCODING 971
SWIDTH 291 0
DWIDTH 7 0
BBX 0 0 0 0
BITMAP
ENDCHAR
STARTCHAR 03CC
ENCODING 972
SWIDTH 291 0
DWIDTH 7 0
BBX 0 0 0 0
BITMAP
ENDCHAR
STARTCHAR 03CD
ENCODING 973
SWIDTH 291 0
DWIDTH 7 0
BBX 0 0 0 0
BITMAP
ENDCHAR
STARTCHAR 03CE
ENCODING 974
SWIDTH 291 0
DWIDTH 7 0
BBX 0 0 0 0
BITMAP
ENDCHAR
STARTCHAR 0401
ENCODING 1025
SWIDTH 291 0
DWIDTH 7 0
BBX 0 0 0 0
BITMAP
ENDCHAR
STARTCHAR 0402
ENCODING 1026
SWIDTH 291 0
DWIDTH 7 0
BBX 0 0 0 0
BITMAP
ENDCHAR
STARTCHAR 0403
ENCODING 1027
SWIDTH 291 0
DWIDTH 7 0
BBX 0 0 0 0
BITMAP
ENDCHAR
STARTCHAR 0404
ENCODING 1028
SWIDTH 291 0
DWIDTH 7 0
BBX 0 0 0 0
BITMAP
ENDCHAR
STARTCHAR 0405
ENCODING 1029
SWIDTH 291 0
DWIDTH 7 0
BBX 0 0 0 0
BITMAP
ENDCHAR
STARTCHAR 0406
ENCODING 1030
SWIDTH 291 0
DWIDTH 7 0
BBX 0 0 0 0
BITMAP
ENDCHAR
STARTCHAR 0407
ENCODING 1031
SWIDTH 291 0
DWIDTH 7 0
BBX 0 0 0 0
BITMAP
ENDCHAR
STARTCHAR 0408
ENCODING 1032
SWIDTH 291 0
DWIDTH 7 0
BBX 0 0 0 0
BITMAP
ENDCHAR
STARTCHAR 0409
ENCODING 1033
SWIDTH 291 0
DWIDTH 7 0
BBX 0 0 0 0
BITMAP
ENDCHAR
STARTCHAR 040A
ENCODING 1034
SWIDTH 291 0
DWIDTH 7 0
BBX 0 0 0 0
BITMAP
ENDCHAR
STARTCHAR 040B
ENCODING 1035
SWIDTH 291 0
DWIDTH 7 0
BBX 0 0 0 0
BITMAP
ENDCHAR
STARTCHAR 040C
ENCODING 1036
SWIDTH 291 0
DWIDTH 7 0
BBX 0 0 0 0
BITMAP
ENDCHAR
STARTCHAR 040E
ENCODING 1038
SWIDTH 291 0
DWIDTH 7 0
BBX 0 0 0 0
BITMAP
ENDCHAR
STARTCHAR 040F
ENCODING 1039
SWIDTH 291 0
DWIDTH 7 0
BBX 0 0 0 0
BITMAP
ENDCHAR
STARTCHAR 0410
ENCODING 1040
SWIDTH 291 0
DWIDTH 7 0
BBX 0 0 0 0
BITMAP
ENDCHAR
STARTCHAR 0411
ENCODING 1041
SWIDTH 291 0
DWIDTH 7 0
BBX 0 0 0 0
BITMAP
ENDCHAR
STARTCHAR 0412
ENCODING 1042
SWIDTH 291 0
DWIDTH 7 0
BBX 0 0 0 0
BITMAP
ENDCHAR
STARTCHAR 0413
ENCODING 1043
SWIDTH 291 0
DWIDTH 7 0
BBX 0 0 0 0
BITMAP
ENDCHAR
STARTCHAR 0414
ENCODING 1044
SWIDTH 291 0
DWIDTH 7 0
BBX 0 0 0 0
BITMAP
ENDCHAR
STARTCHAR 0415
ENCODING 1045
SWIDTH 291 0
DWIDTH 7 0
BBX 0 0 0 0
BITMAP
ENDCHAR
STARTCHAR 0416
ENCODING 1046
SWIDTH 291 0
DWIDTH 7 0
BBX 0 0 0 0
BITMAP
ENDCHAR
STARTCHAR 0417
ENCODING 1047
SWIDTH 291 0
DWIDTH 7 0
BBX 0 0 0 0
BITMAP
ENDCHAR
STARTCHAR 0418
ENCODING 1048
SWIDTH 291 0
DWIDTH 7 0
BBX 0 0 0 0
BITMAP
ENDCHAR
STARTCHAR 0419
ENCODING 1049
SWIDTH 291 0
DWIDTH 7 0
BBX 0 0 0 0
BITMAP
ENDCHAR
STARTCHAR 041A
ENCODING 1050
SWIDTH 291 0
DWIDTH 7 0
BBX 0 0 0 0
BITMAP
ENDCHAR
STARTCHAR 041B
ENCODING 1051
SWIDTH 291 0
DWIDTH 7 0
BBX 0 0 0 0
BITMAP
ENDCHAR
STARTCHAR 041C
ENCODING 1052
SWIDTH 291 0
DWIDTH 7 0
BBX 0 0 0 0
BITMAP
ENDCHAR
STARTCHAR 041D
ENCODING 1053
SWIDTH 291 0
DWIDTH 7 0
BBX 0 0 0 0
BITMAP
ENDCHAR
STARTCHAR 041E
ENCODING 1054
SWIDTH 291 0
DWIDTH 7 0
BBX 0 0 0 0
BITMAP
ENDCHAR
STARTCHAR 041F
ENCODING 1055
SWIDTH 291 0
DWIDTH 7 0
BBX 0 0 0 0
BITMAP
ENDCHAR
STARTCHAR 0420
ENCODING 1056
SWIDTH 291 0
DWIDTH 7 0
BBX 0 0 0 0
BITMAP
ENDCHAR
STARTCHAR 0421
ENCODING 1057
SWIDTH 291 0
DWIDTH 7 0
BBX 0 0 0 0
BITMAP
ENDCHAR
STARTCHAR 0422
ENCODING 1058
SWIDTH 291 0
DWIDTH 7 0
BBX 0 0 0 0
BITMAP
ENDCHAR
STARTCHAR 0423
ENCODING 1059
SWIDTH 291 0
DWIDTH 7 0
BBX 0 0 0 0
BITMAP
ENDCHAR
STARTCHAR 0424
ENCODING 1060
SWIDTH 291 0
DWIDTH 7 0
BBX 0 0 0 0
BITMAP
ENDCHAR
STARTCHAR 0425
ENCODING 1061
SWIDTH 291 0
DWIDTH 7 0
BBX 0 0 0 0
BITMAP
ENDCHAR
STARTCHAR 0426
ENCODING 1062
SWIDTH 291 0
DWIDTH 7 0
BBX 0 0 0 0
BITMAP
ENDCHAR
STARTCHAR 0427
ENCODING 1063
SWIDTH 291 0
DWIDTH 7 0
BBX 0 0 0 0
BITMAP
ENDCHAR
STARTCHAR 0428
ENCODING 1064
SWIDTH 291 0
DWIDTH 7 0
BBX 0 0 0 0
BITMAP
ENDCHAR
STARTCHAR 0429
ENCODING 1065
SWIDTH 291 0
DWIDTH 7 0
BBX 0 0 0 0
BITMAP
ENDCHAR
STARTCHAR 042A
ENCODING 1066
SWIDTH 291 0
DWIDTH 7 0
BBX 0 0 0 0
BITMAP
ENDCHAR
STARTCHAR 042B
ENCODING 1067
SWIDTH 291 0
DWIDTH 7 0
BBX 0 0 0 0
BITMAP
ENDCHAR
STARTCHAR 042C
ENCODING 1068
SWIDTH 291 0
DWIDTH 7 0
BBX 0 0 0 0
BITMAP
ENDCHAR
STARTCHAR 042D
ENCODING 1069
SWIDTH 291 0
DWIDTH 7 0
BBX 0 0 0 0
BITMAP
ENDCHAR
STARTCHAR 042E
ENCODING 1070
SWIDTH 291 0
DWIDTH 7 0
BBX 0 0 0 0
BITMAP
ENDCHAR
STARTCHAR 042F
ENCODING 1071
SWIDTH 291 0
DWIDTH 7 0
BBX 0 0 0 0
BITMAP
ENDCHAR
STARTCHAR 0430
ENCODING 1072
SWIDTH 291 0
DWIDTH 7 0
BBX 0 0 0 0
BITMAP
ENDCHAR
STARTCHAR 0431
ENCODING 1073
SWIDTH 291 0
DWIDTH 7 0
BBX 0 0 0 0
BITMAP
ENDCHAR
STARTCHAR 0432
ENCODING 1074
SWIDTH 291 0
DWIDTH 7 0
BBX 0 0 0 0
BITMAP
ENDCHAR
STARTCHAR 0433
ENCODING 1075
SWIDTH 291 0
DWIDTH 7 0
BBX 0 0 0 0
BITMAP
ENDCHAR
STARTCHAR 0434
ENCODING 1076
SWIDTH 291 0
DWIDTH 7 0
BBX 0 0 0 0
BITMAP
ENDCHAR
STARTCHAR 0435
ENCODING 1077
SWIDTH 291 0
DWIDTH 7 0
BBX 0 0 0 0
BITMAP
ENDCHAR
STARTCHAR 0436
ENCODING 1078
SWIDTH 291 0
DWIDTH 7 0
BBX 0 0 0 0
BITMAP
ENDCHAR
STARTCHAR 0437
ENCODING 1079
SWIDTH 291 0
DWIDTH 7 0
BBX 0 0 0 0
BITMAP
ENDCHAR
STARTCHAR 0438
ENCODING 1080
SWIDTH 291 0
DWIDTH 7 0
BBX 0 0 0 0
BITMAP
ENDCHAR
STARTCHAR 0439
ENCODING 1081
SWIDTH 291 0
DWIDTH 7 0
BBX 0 0 0 0
BITMAP
ENDCHAR
STARTCHAR 043A
ENCODING 1082
SWIDTH 291 0
DWIDTH 7 0
BBX 0 0 0 0
BITMAP
ENDCHAR
STARTCHAR 043B
ENCODING 1083
SWIDTH 291 0
DWIDTH 7 0
BBX 0 0 0 0
BITMAP
ENDCHAR
STARTCHAR 043C
ENCODING 1084
SWIDTH 291 0
DWIDTH 7 0
BBX 0 0 0 0
BITMAP
ENDCHAR
STARTCHAR 043D
ENCODING 1085
SWIDTH 291 0
DWIDTH 7 0
BBX 0 0 0 0
BITMAP
ENDCHAR
STARTCHAR 043E
ENCODING 1086
SWIDTH 291 0
DWIDTH 7 0
BBX 0 0 0 0
BITMAP
ENDCHAR
STARTCHAR 043F
ENCODING 1087
SWIDTH 291 0
DWIDTH 7 0
BBX 0 0 0 0
BITMAP
ENDCHAR
STARTCHAR 0440
ENCODING 1088
SWIDTH 291 0
DWIDTH 7 0
BBX 0 0 0 0
BITMAP
ENDCHAR
STARTCHAR 0441
ENCODING 1089
SWIDTH 291 0
DWIDTH 7 0
BBX 0 0 0 0
BITMAP
ENDCHAR
STARTCHAR 0442
ENCODING 1090
SWIDTH 291 0
DWIDTH 7 0
BBX 0 0 0 0
BITMAP
ENDCHAR
STARTCHAR 0443
ENCODING 1091
SWIDTH 291 0
DWIDTH 7 0
BBX 0 0 0 0
BITMAP
ENDCHAR
STARTCHAR 0444
ENCODING 1092
SWIDTH 291 0
DWIDTH 7 0
BBX 0 0 0 0
BITMAP
ENDCHAR
STARTCHAR 0445
ENCODING 1093
SWIDTH 291 0
DWIDTH 7 0
BBX 0 0 0 0
BITMAP
ENDCHAR
STARTCHAR 0446
ENCODING 1094
SWIDTH 291 0
DWIDTH 7 0
BBX 0 0 0 0
BITMAP
ENDCHAR
STARTCHAR 0447
ENCODING 1095
SWIDTH 291 0
DWIDTH 7 0
BBX 0 0 0 0
BITMAP
ENDCHAR
STARTCHAR 0448
ENCODING 1096
SWIDTH 291 0
DWIDTH 7 0
BBX 0 0 0 0
BITMAP
ENDCHAR
STARTCHAR 0449
ENCODING 1097
SWIDTH 291 0
DWIDTH 7 0
BBX 0 0 0 0
BITMAP
ENDCHAR
STARTCHAR 044A
ENCODING 1098
SWIDTH 291 0
DWIDTH 7 0
BBX 0 0 0 0
BITMAP
ENDCHAR
STARTCHAR 044B
ENCODING 1099
SWIDTH 291 0
DWIDTH 7 0
BBX 0 0 0 0
BITMAP
ENDCHAR
STARTCHAR 044C
ENCODING 1100
SWIDTH 291 0
DWIDTH 7 0
BBX 0 0 0 0
BITMAP
ENDCHAR
STARTCHAR 044D
ENCODING 1101
SWIDTH 291 0
DWIDTH 7 0
BBX 0 0 0 0
BITMAP
ENDCHAR
STARTCHAR 044E
ENCODING 1102
SWIDTH 291 0
DWIDTH 7 0
BBX 0 0 0 0
BITMAP
ENDCHAR
STARTCHAR 044F
ENCODING 1103
SWIDTH 291 0
DWIDTH 7 0
BBX 0 0 0 0
BITMAP
ENDCHAR
STARTCHAR 0451
ENCODING 1105
SWIDTH 291 0
DWIDTH 7 0
BBX 0 0 0 0
BITMAP
ENDCHAR
STARTCHAR 0452
ENCODING 1106
SWIDTH 291 0
DWIDTH 7 0
BBX 0 0 0 0
BITMAP
ENDCHAR
STARTCHAR 0453
ENCODING 1107
SWIDTH 291 0
DWIDTH 7 0
BBX 0 0 0 0
BITMAP
ENDCHAR
STARTCHAR 0454
ENCODING 1108
SWIDTH 291 0
DWIDTH 7 0
BBX 0 0 0 0
BITMAP
ENDCHAR
STARTCHAR 0455
ENCODING 1109
SWIDTH 291 0
DWIDTH 7 0
BBX 0 0 0 0
BITMAP
ENDCHAR
STARTCHAR 0456
ENCODING 1110
SWIDTH 291 0
DWIDTH 7 0
BBX 0 0 0 0
BITMAP
ENDCHAR
STARTCHAR 0457
ENCODING 1111
SWIDTH 291 0
DWIDTH 7 0
BBX 0 0 0 0
BITMAP
ENDCHAR
STARTCHAR 0458
ENCODING 1112
SWIDTH 291 0
DWIDTH 7 0
BBX 0 0 0 0
BITMAP
ENDCHAR
STARTCHAR 0459
ENCODING 1113
SWIDTH 291 0
DWIDTH 7 0
BBX 0 0 0 0
BITMAP
ENDCHAR
STARTCHAR 045A
ENCODING 1114
SWIDTH 291 0
DWIDTH 7 0
BBX 0 0 0 0
BITMAP
ENDCHAR
STARTCHAR 045B
ENCODING 1115
SWIDTH 291 0
DWIDTH 7 0
BBX 0 0 0 0
BITMAP
ENDCHAR
STARTCHAR 045C
ENCODING 1116
SWIDTH 291 0
DWIDTH 7 0
BBX 0 0 0 0
BITMAP
ENDCHAR
STARTCHAR 045E
ENCODING 1118
SWIDTH 291 0
DWIDTH 7 0
BBX 0 0 0 0
BITMAP
ENDCHAR
STARTCHAR 045F
ENCODING 1119
SWIDTH 291 0
DWIDTH 7 0
BBX 0 0 0 0
BITMAP
ENDCHAR
STARTCHAR 0470
ENCODING 1136
SWIDTH 291 0
DWIDTH 7 0
BBX 0 0 0 0
BITMAP
ENDCHAR
STARTCHAR 0471
ENCODING 1137
SWIDTH 291 0
DWIDTH 7 0
BBX 0 0 0 0
BITMAP
ENDCHAR
STARTCHAR 0472
ENCODING 1138
SWIDTH 291 0
DWIDTH 7 0
BBX 0 0 0 0
BITMAP
ENDCHAR
STARTCHAR 0473
ENCODING 1139
SWIDTH 291 0
DWIDTH 7 0
BBX 0 0 0 0
BITMAP
ENDCHAR
STARTCHAR 0490
ENCODING 1168
SWIDTH 291 0
DWIDTH 7 0
BBX 0 0 0 0
BITMAP
ENDCHAR
STARTCHAR 0491
ENCODING 1169
SWIDTH 291 0
DWIDTH 7 0
BBX 0 0 0 0
BITMAP
ENDCHAR
STARTCHAR 1E80
ENCODING 7808
SWIDTH 291 0
DWIDTH 7 0
BBX 0 0 0 0
BITMAP
ENDCHAR
STARTCHAR 1E81
ENCODING 7809
SWIDTH 291 0
DWIDTH 7 0
BBX 0 0 0 0
BITMAP
ENDCHAR
STARTCHAR 1E82
ENCODING 7810
SWIDTH 291 0
DWIDTH 7 0
BBX 0 0 0 0
BITMAP
ENDCHAR
STARTCHAR 1E83
ENCODING 7811
SWIDTH 291 0
DWIDTH 7 0
BBX 0 0 0 0
BITMAP
ENDCHAR
STARTCHAR 1E84
ENCODING 7812
SWIDTH 291 0
DWIDTH 7 0
BBX 0 0 0 0
BITMAP
ENDCHAR
STARTCHAR 1E85
ENCODING 7813
SWIDTH 291 0
DWIDTH 7 0
BBX 0 0 0 0
BITMAP
ENDCHAR
STARTCHAR 1EF2
ENCODING 7922
SWIDTH 291 0
DWIDTH 7 0
BBX 0 0 0 0
BITMAP
ENDCHAR
STARTCHAR 1EF3
ENCODING 7923
SWIDTH 291 0
DWIDTH 7 0
BBX 0 0 0 0
BITMAP
ENDCHAR
STARTCHAR 2010
ENCODING 8208
SWIDTH 333 0
DWIDTH 8 0
BBX 6 2 1 6
BITMAP
FC
FC
ENDCHAR
STARTCHAR 2013
ENCODING 8211
SWIDTH 291 0
DWIDTH 7 0
BBX 0 0 0 0
BITMAP
ENDCHAR
STARTCHAR 2014
ENCODING 8212
SWIDTH 291 0
DWIDTH 7 0
BBX 0 0 0 0
BITMAP
ENDCHAR
STARTCHAR 2015
ENCODING 8213
SWIDTH 291 0
DWIDTH 7 0
BBX 0 0 0 0
BITMAP
ENDCHAR
STARTCHAR 2017
ENCODING 8215
SWIDTH 291 0
DWIDTH 7 0
BBX 0 0 0 0
BITMAP
ENDCHAR
STARTCHAR 2018
ENCODING 8216
SWIDTH 208 0
DWIDTH 5 0
BBX 4 4 0 10
BITMAP
60
F0
70
70
ENDCHAR
STARTCHAR 2019
ENCODING 8217
SWIDTH 208 0
DWIDTH 5 0
BBX 3 4 1 10
BITMAP
60
E0
E0
C0
ENDCHAR
STARTCHAR 201A
ENCODING 8218
SWIDTH 291 0
DWIDTH 7 0
BBX 0 0 0 0
BITMAP
ENDCHAR
STARTCHAR 201B
ENCODING 8219
SWIDTH 291 0
DWIDTH 7 0
BBX 0 0 0 0
BITMAP
ENDCHAR
STARTCHAR 201C
ENCODING 8220
SWIDTH 333 0
DWIDTH 8 0
BBX 8 4 0 10
BITMAP
66
FE
7E
7F
ENDCHAR
STARTCHAR 201D
ENCODING 8221
SWIDTH 333 0
DWIDTH 8 0
BBX 7 4 1 10
BITMAP
66
EE
EE
CC
ENDCHAR
STARTCHAR 201E
ENCODING 8222
SWIDTH 291 0
DWIDTH 7 0
BBX 0 0 0 0
BITMAP
ENDCHAR
STARTCHAR 2020
ENCODING 8224
SWIDTH 291 0
DWIDTH 7 0
BBX 0 0 0 0
BITMAP
ENDCHAR
STARTCHAR 2021
ENCODING 8225
SWIDTH 291 0
DWIDTH 7 0
BBX 0 0 0 0
BITMAP
ENDCHAR
STARTCHAR 2022
ENCODING 8226
SWIDTH 458 0
DWIDTH 11 0
BBX 10 8 1 5
BITMAP
0800
0C00
FFC0
7F80
3F00
3E00
3F00
2100
ENDCHAR
STARTCHAR 2026
ENCODING 8230
SWIDTH 541 0
DWIDTH 13 0
BBX 11 3 1 0
BITMAP
EEE0
EEE0
EEE0
ENDCHAR
STARTCHAR 2126
ENCODING 8486
SWIDTH 291 0
DWIDTH 7 0
BBX 0 0 0 0
BITMAP
ENDCHAR
STARTCHAR 2206
ENCODING 8710
SWIDTH 291 0
DWIDTH 7 0
BBX 0 0 0 0
BITMAP
ENDCHAR
STARTCHAR 2219
ENCODING 8729
SWIDTH 291 0
DWIDTH 7 0
BBX 0 0 0 0
BITMAP
ENDCHAR
ENDFONT
